<?xml version="1.0" encoding="utf-8"?>
<svg version="1.1" xmlns="http://www.w3.org/2000/svg" viewBox="0 0 900 900">
  <g>
    <g>
      <g>
        <path fill="#fcf3f2" d="M450,5C204.23,5,5,204.23,5,450s199.23,445,445,445s445-199.23,445-445S695.77,5,450,5z M687.75,687.75
          c-63.51,63.5-147.94,98.47-237.75,98.47s-174.24-34.98-237.75-98.47c-63.5-63.51-98.47-147.94-98.47-237.75
          s34.98-174.24,98.47-237.75c63.51-63.5,147.94-98.47,237.75-98.47s174.24,34.98,237.75,98.47
          c63.5,63.51,98.47,147.94,98.47,237.75S751.25,624.24,687.75,687.75z"/>
      </g>
    </g>
    <g>
      <g>
        <path fill="#fcf3f2" d="M450,766.44c-84.53,0-163.99-32.92-223.76-92.69c-59.77-59.77-92.68-139.23-92.68-223.76
          c0-84.53,32.92-163.99,92.68-223.76c59.77-59.77,139.23-92.68,223.76-92.68c84.53,0,163.99,32.92,223.76,92.68
          c59.77,59.77,92.69,139.23,92.69,223.76c0,84.53-32.92,163.99-92.68,223.76C613.99,733.53,534.53,766.44,450,766.44z"/>
      </g>
    </g>
    <g>
      <g>
        <path fill="#fff" d="M265.01,758.45l11.62,7.95l-54.87,41.03l-10.56-7.23l18.53-65.9l11.94,8.18l-16.19,48.58L265.01,758.45z"/>
        <path fill="#fff" d="M221.79,808.64l-11.73-8.03l19.1-67.91l13.7,9.38l-15.34,46.02l37.45-30.88l13.37,9.15L221.79,808.64z
            M212.34,799.78l9.4,6.43l53.2-39.77l-9.86-6.75L223.46,794l17.04-51.13l-10.19-6.98L212.34,799.78z"/>
      </g>
      <g>
        <path fill="#fff" d="M280.34,786.02l11.45,5.53l-20.88,43.17l-11.45-5.53L280.34,786.02z M294.27,786.41l-11.45-5.54l5.04-10.42
          l11.45,5.53L294.27,786.41z"/>
        <path fill="#fff" d="M271.36,836.05l-13.23-6.4l21.74-44.95l13.23,6.4L271.36,836.05z M260.78,828.73l9.66,4.67l20.02-41.39
          l-9.67-4.67L260.78,828.73z M294.73,787.73l-13.23-6.4l5.9-12.2l13.23,6.4L294.73,787.73z M284.15,780.41l9.66,4.67l4.18-8.64
          l-9.67-4.67L284.15,780.41z"/>
      </g>
      <g>
        <path fill="#fff" d="M306.59,849.3l-11.75-4.37l22.61-60.78l11.75,4.37L306.59,849.3z"/>
        <path fill="#fff" d="M307.17,850.57l-13.61-5.06l23.3-62.63l13.6,5.06L307.17,850.57z M296.11,844.34l9.9,3.68l21.92-58.92
          l-9.9-3.68L296.11,844.34z"/>
      </g>
      <g>
        <path fill="#fff" d="M343.18,860.57l-12.08-3.35l17.33-62.49l12.08,3.35L343.18,860.57z"/>
        <path fill="#fff" d="M343.87,861.79l-13.99-3.88l17.86-64.39l13.99,3.88L343.87,861.79z M332.32,856.53l10.18,2.82l16.8-60.58
          l-10.18-2.82L332.32,856.53z"/>
      </g>
      <g>
        <path fill="#fff" d="M392.19,841.28c2.35,0.1,4.06,0.02,5.12-0.25c1.9-0.45,2.99-1.47,3.26-3.06c0.33-1.94-0.13-3.39-1.36-4.36
          c-1.24-0.97-3.18-1.68-5.81-2.12c-2.96-0.5-5.18-0.14-6.66,1.1c-1.06,0.92-1.89,2.27-2.49,4.04l-11.93-2.03
          c0.96-4.09,2.7-7.29,5.22-9.6c3.99-3.61,9.98-4.73,17.96-3.38c5.2,0.88,9.64,2.69,13.33,5.43c3.69,2.74,5.05,6.96,4.08,12.65
          l-3.68,21.69c-0.25,1.5-0.54,3.33-0.84,5.48c-0.19,1.63-0.13,2.77,0.18,3.42c0.31,0.65,0.83,1.23,1.58,1.74l-0.31,1.82
          l-13.44-2.28c-0.21-1.02-0.32-1.96-0.32-2.82c0-0.86,0.04-1.84,0.14-2.92c-2.03,1.56-4.28,2.8-6.74,3.72
          c-2.94,1.08-6.09,1.33-9.46,0.76c-4.31-0.73-7.65-2.56-10.04-5.48c-2.39-2.92-3.21-6.62-2.45-11.1
          c0.99-5.81,3.96-9.63,8.92-11.47c2.72-1,6.53-1.39,11.44-1.18L392.19,841.28z M398.77,848.34c-0.87,0.36-1.74,0.62-2.6,0.79
          c-0.86,0.17-2.01,0.26-3.46,0.28l-2.9,0.04c-2.72,0.01-4.7,0.26-5.97,0.73c-2.14,0.8-3.41,2.38-3.81,4.75
          c-0.36,2.11-0.02,3.74,1.01,4.88c1.03,1.14,2.39,1.86,4.1,2.15c2.7,0.46,5.32,0.1,7.86-1.07c2.54-1.18,4.21-3.82,5-7.94
          L398.77,848.34z"/>
        <path fill="#fff" d="M410.64,875l-15.08-2.56l-0.14-0.66c-0.23-1.08-0.34-2.1-0.35-3.02c0-0.29,0-0.6,0.01-0.93
          c-1.64,1.06-3.41,1.95-5.28,2.65c-3.09,1.14-6.44,1.41-9.98,0.81c-4.53-0.77-8.11-2.73-10.64-5.83
          c-2.57-3.14-3.46-7.14-2.66-11.89c1.05-6.16,4.26-10.27,9.55-12.23c2.83-1.04,6.81-1.46,11.83-1.24l4.33,0.2
          c2.23,0.1,3.87,0.03,4.84-0.22c2-0.47,2.4-1.52,2.53-2.27c0.35-2.08-0.4-2.95-1-3.41c-1.1-0.86-2.91-1.51-5.37-1.93
          c-2.65-0.45-4.62-0.15-5.86,0.88c-0.91,0.79-1.65,2-2.19,3.6l-0.27,0.8l-13.8-2.34l0.24-1.03c1.01-4.27,2.86-7.67,5.51-10.1
          c4.21-3.81,10.53-5.02,18.8-3.62c5.33,0.9,9.95,2.79,13.75,5.61c3.99,2.97,5.5,7.55,4.47,13.61l-3.68,21.69
          c-0.26,1.51-0.54,3.35-0.84,5.45c-0.21,1.86-0.03,2.59,0.09,2.86c0.23,0.48,0.65,0.94,1.25,1.35l0.52,0.36L410.64,875z
            M397.23,870.72l11.79,2l0.04-0.25c-0.63-0.52-1.1-1.11-1.4-1.75c-0.4-0.83-0.48-2.09-0.27-3.96c0.3-2.15,0.59-4,0.85-5.53
          l3.68-21.69c0.91-5.35-0.3-9.17-3.69-11.69c-3.55-2.63-7.89-4.4-12.9-5.25c-7.64-1.3-13.4-0.24-17.13,3.13
          c-2.14,1.96-3.7,4.68-4.65,8.07l10.06,1.71c0.63-1.55,1.46-2.79,2.49-3.67c1.72-1.44,4.22-1.88,7.47-1.33
          c2.83,0.48,4.87,1.24,6.26,2.32c1.06,0.83,2.22,2.42,1.73,5.3c-0.24,1.38-1.12,3.18-4.01,3.86c-1.16,0.29-2.93,0.38-5.39,0.27h0
          l-4.33-0.2c-4.75-0.2-8.47,0.17-11.05,1.12c-4.64,1.72-7.35,5.22-8.28,10.71c-0.72,4.23,0.01,7.6,2.24,10.31
          c2.22,2.72,5.4,4.44,9.44,5.13c3.19,0.54,6.2,0.3,8.96-0.71c2.35-0.88,4.53-2.08,6.48-3.58l1.78-1.37l-0.2,2.24
          c-0.09,1.06-0.14,2.01-0.14,2.83C397.05,869.36,397.11,870.02,397.23,870.72z M387.38,863.13c-0.8,0-1.6-0.07-2.41-0.21
          c-1.92-0.33-3.49-1.15-4.67-2.46c-1.24-1.37-1.66-3.29-1.25-5.71c0.46-2.73,1.96-4.59,4.44-5.51c1.39-0.51,3.45-0.77,6.31-0.79
          l2.89-0.04c1.39-0.02,2.49-0.11,3.29-0.26c0.79-0.15,1.6-0.4,2.41-0.73l1.65-0.67l-1.08,6.35c-0.85,4.45-2.72,7.36-5.56,8.67
          C391.46,862.68,389.44,863.13,387.38,863.13z M397.52,849.81c-0.39,0.11-0.77,0.2-1.16,0.28c-0.92,0.18-2.11,0.28-3.64,0.3
          l-2.9,0.04c-2.59,0.01-4.49,0.24-5.64,0.66c-1.8,0.67-2.84,1.98-3.18,3.99c-0.31,1.81-0.06,3.14,0.77,4.05
          c0.88,0.98,2.04,1.58,3.53,1.83c2.49,0.42,4.94,0.09,7.28-1c2.22-1.03,3.72-3.46,4.44-7.23L397.52,849.81z"/>
      </g>
      <g>
        <path fill="#fff" d="M473.8,818.33c4.41-6.03,10.61-9.61,18.59-10.76c10.68-1.53,19,0.89,24.96,7.26
          c3.3,3.59,5.34,7.37,6.11,11.34l-13.41,1.93c-1.3-2.95-2.72-5.12-4.29-6.5c-2.79-2.44-6.53-3.33-11.22-2.66
          c-4.78,0.69-8.26,3.19-10.46,7.52c-2.19,4.33-2.77,10.1-1.74,17.29c1.03,7.2,3.26,12.38,6.69,15.55
          c3.43,3.17,7.38,4.43,11.87,3.78c4.6-0.66,7.89-2.7,9.86-6.13c1.1-1.85,1.85-4.49,2.25-7.92l13.33-1.91
          c-0.14,7.16-2.26,13.27-6.36,18.34c-4.1,5.06-9.83,8.12-17.21,9.18c-9.13,1.31-16.74-0.62-22.82-5.79
          c-6.08-5.2-9.87-12.98-11.35-23.35C467,834.32,468.73,825.25,473.8,818.33z"/>
        <path fill="#fff" d="M497.46,876.04c-7.04,0-13.12-2.15-18.14-6.42c-6.24-5.34-10.18-13.4-11.69-23.96
          c-1.64-11.42,0.17-20.81,5.38-27.92l0,0c4.55-6.22,11.03-9.97,19.25-11.15c10.98-1.57,19.66,0.97,25.83,7.56
          c3.41,3.71,5.55,7.69,6.36,11.83l0.2,1.02l-15.18,2.18l-0.3-0.69c-1.23-2.81-2.59-4.88-4.03-6.15
          c-2.55-2.23-6.06-3.05-10.43-2.42c-4.48,0.64-7.66,2.93-9.72,6.99c-2.09,4.13-2.64,9.75-1.64,16.71
          c0.99,6.94,3.14,11.97,6.38,14.97c3.22,2.98,6.84,4.14,11.06,3.53c4.32-0.62,7.31-2.47,9.14-5.64c1.03-1.73,1.74-4.27,2.13-7.55
          l0.09-0.76l15.23-2.19l-0.02,1.16c-0.15,7.35-2.36,13.72-6.58,18.94c-4.24,5.24-10.24,8.45-17.84,9.54
          C501.04,875.91,499.22,876.04,497.46,876.04z M498.28,808.12c-1.83,0-3.74,0.14-5.74,0.43c-7.67,1.1-13.71,4.59-17.94,10.36l0,0
          c-4.89,6.67-6.58,15.58-5.02,26.47c1.45,10.07,5.15,17.72,11.02,22.74c5.82,4.95,13.24,6.83,22.03,5.56
          c7.09-1.02,12.67-3.99,16.59-8.83c3.71-4.59,5.76-10.16,6.1-16.57l-11.41,1.64c-0.44,3.2-1.21,5.74-2.29,7.56
          c-2.12,3.67-5.67,5.9-10.57,6.6c-4.78,0.68-9.04-0.67-12.68-4.04c-3.58-3.31-5.94-8.74-7-16.14
          c-1.06-7.37-0.44-13.39,1.84-17.88c2.34-4.61,6.11-7.32,11.2-8.06c4.97-0.71,9.01,0.26,12.02,2.89
          c1.54,1.35,2.96,3.42,4.23,6.15l11.62-1.67c-0.87-3.42-2.77-6.72-5.64-9.85C512.05,810.6,505.89,808.12,498.28,808.12z"/>
      </g>
      <g>
        <path fill="#fff" d="M551.72,807.45l-12.26,3.36l-3.06-11.16l12.26-3.36L551.72,807.45z M540.97,816.33l12.26-3.36l12.68,46.25
          l-12.26,3.36L540.97,816.33z"/>
        <path fill="#fff" d="M552.96,863.79l-13.2-48.15l14.17-3.88l13.2,48.15L552.96,863.79z M542.18,817.02l12.16,44.34l10.35-2.84
          l-12.16-44.34L542.18,817.02z M538.77,812.03l-3.58-13.07l14.17-3.88l3.58,13.07L538.77,812.03z M537.61,800.35l2.54,9.25
          l10.35-2.84l-2.54-9.25L537.61,800.35z"/>
      </g>
      <g>
        <path fill="#fff" d="M572.16,817.08l-3.12-8.37l6.27-2.33l-4.67-12.53l11.63-4.33l4.67,12.53l7.3-2.72l3.12,8.37l-7.3,2.72
          l8.84,23.75c0.69,1.84,1.35,2.9,1.98,3.18c0.64,0.28,2.15-0.03,4.54-0.92c0.36-0.13,0.73-0.28,1.13-0.44
          c0.39-0.16,0.78-0.33,1.15-0.5l3.27,8.78l-5.49,2.28c-5.48,2.26-9.63,2.71-12.45,1.35c-1.82-0.86-3.25-2.68-4.3-5.49
          l-10.3-27.66L572.16,817.08z"/>
        <path fill="#fff" d="M596.77,849.67c-1.59,0-2.97-0.29-4.18-0.87c-2.05-0.96-3.66-2.99-4.79-6.03l-9.95-26.74l-6.27,2.33
          l-3.81-10.22l6.27-2.33l-4.67-12.53l13.48-5.02l4.67,12.53l7.3-2.72l3.81,10.22l-7.3,2.72l8.5,22.82
          c0.87,2.34,1.43,2.61,1.45,2.62c0.06,0.02,0.76,0.19,3.8-0.94c0.34-0.13,0.71-0.27,1.09-0.43c0.38-0.16,0.76-0.32,1.12-0.48
          l0.97-0.44l3.97,10.67l-6.37,2.64C602.3,848.94,599.29,849.67,596.77,849.67z M579.01,813.48l10.65,28.59
          c0.95,2.54,2.22,4.2,3.79,4.94c2.55,1.23,6.47,0.77,11.66-1.37l4.61-1.91l-2.57-6.91c-0.07,0.03-0.14,0.06-0.21,0.09
          c-0.4,0.17-0.79,0.32-1.15,0.45c-3.49,1.3-4.63,1.18-5.29,0.9c-0.93-0.41-1.7-1.56-2.51-3.74l-9.19-24.67l7.3-2.72l-2.43-6.52
          l-7.3,2.72l-4.67-12.53l-9.77,3.64l4.67,12.53l-6.27,2.33l2.43,6.52L579.01,813.48z"/>
      </g>
      <g>
        <path fill="#fff" d="M632.97,779.14c0.15-0.06,0.48-0.2,0.99-0.42l5.77,11.48c-0.75,0.28-1.4,0.54-1.97,0.79
          c-0.56,0.25-1.02,0.46-1.36,0.63c-4.51,2.27-6.8,5.25-6.87,8.97c-0.03,2.09,0.81,4.84,2.53,8.28l10.29,20.48L631.09,835
          l-21.53-42.85l10.69-5.37l3.75,7.47c0.29-3.72,0.82-6.43,1.58-8.13c1.21-2.81,3.5-5.06,6.85-6.74
          C632.64,779.28,632.82,779.2,632.97,779.14z"/>
        <path fill="#fff" d="M630.65,836.33l-22.42-44.61l12.46-6.26l2.69,5.36c0.31-2.17,0.74-3.85,1.3-5.09c1.3-3,3.76-5.44,7.31-7.22
          c0.24-0.12,0.45-0.21,0.62-0.28l0,0c0.14-0.06,0.46-0.19,0.96-0.41l0.86-0.38l6.69,13.3l-1.04,0.38
          c-0.72,0.27-1.36,0.53-1.91,0.77c-0.54,0.24-0.98,0.45-1.31,0.61c-4.19,2.11-6.26,4.76-6.32,8.1c-0.03,1.91,0.79,4.54,2.43,7.81
          l10.73,21.36L630.65,836.33z M610.89,792.6l20.64,41.08l9.51-4.78l-9.85-19.6c-1.81-3.61-2.68-6.47-2.64-8.74
          c0.08-4.09,2.57-7.4,7.41-9.83c0.35-0.18,0.82-0.39,1.4-0.65c0.31-0.14,0.64-0.28,0.99-0.42l-4.86-9.67
          c-0.07,0.03-0.12,0.05-0.17,0.07c-0.13,0.05-0.28,0.12-0.46,0.21c-3.13,1.57-5.27,3.67-6.39,6.25c-0.71,1.6-1.22,4.22-1.5,7.81
          l-0.28,3.53l-4.9-9.75L610.89,792.6z"/>
      </g>
      <g>
        <path fill="#fff" d="M674.7,776.06c1.74-1.59,2.89-2.85,3.46-3.79c1.03-1.66,1.08-3.15,0.15-4.47
          c-1.13-1.61-2.48-2.31-4.04-2.13c-1.56,0.19-3.43,1.05-5.62,2.59c-2.45,1.73-3.77,3.56-3.94,5.48c-0.1,1.4,0.26,2.94,1.08,4.62
          l-9.88,6.98c-2.2-3.58-3.23-7.07-3.08-10.48c0.28-5.37,3.73-10.39,10.35-15.06c4.31-3.04,8.73-4.89,13.28-5.55
          c4.55-0.66,8.48,1.37,11.82,6.09l12.69,17.97c0.88,1.25,1.97,2.74,3.27,4.48c1.02,1.29,1.87,2.06,2.54,2.3
          c0.67,0.24,1.46,0.28,2.35,0.12l1.07,1.51l-11.14,7.87c-0.87-0.57-1.61-1.16-2.22-1.77c-0.61-0.61-1.26-1.33-1.96-2.17
          c-0.34,2.54-1.06,5-2.15,7.39c-1.32,2.84-3.38,5.24-6.17,7.21c-3.57,2.52-7.23,3.59-10.98,3.2c-3.76-0.38-6.94-2.43-9.57-6.14
          c-3.4-4.82-3.99-9.62-1.77-14.42c1.22-2.62,3.65-5.59,7.28-8.91L674.7,776.06z M684.34,776.41c-0.37,0.87-0.8,1.67-1.29,2.39
          c-0.49,0.72-1.24,1.6-2.26,2.64l-2.03,2.08c-1.91,1.93-3.15,3.5-3.72,4.73c-0.95,2.07-0.74,4.09,0.65,6.06
          c1.24,1.75,2.62,2.67,4.15,2.75c1.54,0.08,3.01-0.37,4.42-1.37c2.24-1.58,3.84-3.68,4.82-6.31c0.97-2.63,0.28-5.68-2.06-9.15
          L684.34,776.41z"/>
        <path fill="#fff" d="M677.02,809.5c-0.52,0-1.04-0.03-1.57-0.08c-4.03-0.41-7.49-2.62-10.27-6.56
          c-3.6-5.1-4.23-10.29-1.86-15.41c1.27-2.73,3.8-5.84,7.51-9.22l3.21-2.91c1.66-1.51,2.76-2.71,3.28-3.57
          c1.09-1.75,0.63-2.77,0.19-3.39c-1.22-1.73-2.36-1.81-3.12-1.72c-1.39,0.17-3.13,0.98-5.17,2.42c-2.2,1.55-3.38,3.15-3.53,4.76
          c-0.09,1.2,0.24,2.59,0.98,4.1l0.37,0.76l-11.43,8.07l-0.55-0.9c-2.3-3.73-3.38-7.45-3.22-11.05
          c0.3-5.67,3.92-10.99,10.77-15.83c4.42-3.12,9.03-5.04,13.71-5.72c4.91-0.72,9.22,1.47,12.77,6.5l12.69,17.97
          c0.88,1.25,1.98,2.75,3.25,4.46c1.16,1.47,1.8,1.86,2.08,1.96c0.5,0.18,1.12,0.21,1.83,0.08l0.62-0.11l2,2.83l-12.5,8.83
          l-0.56-0.37c-0.92-0.61-1.72-1.24-2.38-1.9c-0.21-0.21-0.42-0.43-0.64-0.67c-0.41,1.91-1.04,3.78-1.87,5.6
          c-1.39,2.98-3.58,5.54-6.5,7.61C683.85,808.34,680.47,809.5,677.02,809.5z M674.73,764.65c1.28,0,2.93,0.51,4.38,2.57
          c0.81,1.15,1.44,3.04-0.12,5.56c-0.62,1.02-1.8,2.33-3.63,4l0,0l-3.21,2.91c-3.51,3.21-5.88,6.1-7.04,8.59
          c-2.08,4.49-1.53,8.88,1.69,13.43c2.47,3.5,5.37,5.38,8.86,5.73c3.48,0.36,6.96-0.66,10.31-3.03c2.64-1.86,4.61-4.16,5.85-6.82
          c1.05-2.28,1.74-4.68,2.07-7.1l0.3-2.23l1.44,1.73c0.68,0.81,1.32,1.52,1.9,2.1c0.43,0.43,0.93,0.85,1.51,1.27l9.77-6.9
          l-0.15-0.21c-0.81,0.07-1.55-0.01-2.22-0.25c-0.87-0.31-1.82-1.14-2.98-2.62c-1.3-1.74-2.41-3.25-3.3-4.52l-12.69-17.97
          c-3.13-4.43-6.69-6.28-10.87-5.68c-4.37,0.64-8.69,2.45-12.85,5.38c-6.33,4.47-9.67,9.28-9.93,14.31c-0.13,2.9,0.68,5.93,2.4,9
          l8.34-5.89c-0.65-1.55-0.93-3.01-0.83-4.36c0.2-2.23,1.67-4.31,4.36-6.21c2.34-1.65,4.33-2.56,6.07-2.77
          C674.33,764.67,674.53,764.65,674.73,764.65z M680.2,798.05c-0.13,0-0.27,0-0.4-0.01c-1.84-0.1-3.5-1.16-4.91-3.16
          c-1.6-2.26-1.85-4.63-0.74-7.04c0.62-1.34,1.9-2.98,3.92-5.01l2.02-2.07c0.97-0.99,1.69-1.83,2.15-2.51
          c0.45-0.67,0.85-1.41,1.2-2.22l0.69-1.64l3.72,5.26c2.53,3.76,3.26,7.14,2.18,10.07c-1.04,2.8-2.78,5.08-5.17,6.77
          C683.37,797.53,681.82,798.05,680.2,798.05z M684.49,778.35c-0.2,0.35-0.41,0.69-0.62,1.01c-0.53,0.78-1.3,1.69-2.37,2.78
          l-2.03,2.08c-1.83,1.84-3.02,3.34-3.53,4.45c-0.8,1.74-0.62,3.4,0.56,5.07c1.06,1.5,2.17,2.27,3.4,2.33
          c1.3,0.08,2.56-0.32,3.8-1.19c2.06-1.46,3.56-3.42,4.46-5.84c0.85-2.3,0.19-5.08-1.95-8.26L684.49,778.35z"/>
      </g>
    </g>
    <g>
      <g>
        <path fill="#fff" d="M105.8,553.43l3.91,12.95l-62.35,18.85l-3.91-12.94L105.8,553.43z"/>
      </g>
      <g>
        <path fill="#fff" d="M52.93,540.65l28.5-5.54c2.69-0.52,4.65-1.23,5.89-2.13c2.18-1.59,2.95-4.02,2.32-7.3
          c-0.82-4.2-3.08-6.75-6.8-7.64c-2.01-0.45-4.53-0.37-7.57,0.22l-25.73,5l-2.44-12.54l47.29-9.19l2.34,12.02l-6.68,1.3
          c0.17,0.09,0.66,0.29,1.47,0.61c0.81,0.32,1.55,0.75,2.23,1.27c2.11,1.6,3.66,3.23,4.65,4.91c0.99,1.68,1.72,3.73,2.19,6.15
          c1.36,6.98-0.25,12.17-4.81,15.57c-2.51,1.89-6.47,3.37-11.88,4.42l-28.5,5.54L52.93,540.65z"/>
      </g>
      <g>
        <path fill="#fff" d="M42.52,467.98c0-0.16,0-0.52-0.01-1.08l12.87-0.91c-0.03,0.8-0.04,1.51-0.03,2.13
          c0.02,0.62,0.04,1.12,0.06,1.5c0.36,5.05,2.25,8.33,5.66,9.83c1.92,0.84,4.81,1.12,8.65,0.85l22.97-1.63l0.9,12.65l-48.05,3.41
          l-0.85-11.99l8.37-0.59c-3.34-1.71-5.65-3.25-6.93-4.6c-2.13-2.21-3.34-5.2-3.6-8.96C42.52,468.34,42.51,468.14,42.52,467.98z"
          />
      </g>
      <g>
        <path fill="#fff" d="M63.01,437.38c-0.18-2.36-0.47-4.05-0.86-5.08c-0.68-1.85-1.83-2.81-3.44-2.89
          c-1.97-0.1-3.37,0.53-4.18,1.88c-0.82,1.35-1.29,3.37-1.42,6.05c-0.15,3.01,0.49,5.18,1.9,6.51c1.05,0.95,2.49,1.62,4.33,2
          L58.74,458c-4.2-0.47-7.59-1.82-10.2-4.05c-4.08-3.55-5.92-9.38-5.52-17.51c0.26-5.29,1.53-9.94,3.82-13.95
          c2.29-4.01,6.33-5.87,12.13-5.59l22.07,1.07c1.53,0.07,3.39,0.13,5.57,0.18c1.65-0.01,2.78-0.2,3.39-0.59
          c0.61-0.38,1.13-0.98,1.55-1.78l1.85,0.09l-0.66,13.68c-0.99,0.34-1.91,0.56-2.77,0.66c-0.86,0.11-1.84,0.18-2.93,0.21
          c1.8,1.84,3.3,3.93,4.52,6.27c1.43,2.8,2.06,5.91,1.89,9.35c-0.21,4.38-1.63,7.94-4.26,10.67c-2.62,2.74-6.22,3.99-10.78,3.77
          c-5.91-0.29-10.08-2.79-12.51-7.52c-1.32-2.59-2.17-6.35-2.55-11.27L63.01,437.38z M69.25,429.97c0.46,0.83,0.83,1.66,1.1,2.5
          c0.27,0.84,0.5,1.97,0.7,3.42l0.39,2.89c0.34,2.71,0.82,4.66,1.44,5.87c1.05,2.04,2.79,3.11,5.2,3.23
          c2.15,0.1,3.73-0.42,4.75-1.59c1.01-1.16,1.56-2.61,1.65-4.34c0.13-2.75-0.54-5.32-2.02-7.71c-1.48-2.39-4.32-3.74-8.52-4.03
          L69.25,429.97z"/>
      </g>
      <g>
        <path fill="#fff" d="M57.29,362.88c3.18-2.58,7.72-3.28,13.65-2.1l31.81,6.36l-2.53,12.65l-28.73-5.74
          c-2.48-0.5-4.46-0.55-5.92-0.15c-2.67,0.72-4.34,2.77-5.02,6.16c-0.83,4.16,0.37,7.37,3.62,9.63c1.72,1.18,4.04,2.06,6.95,2.64
          l25.57,5.11l-2.47,12.35l-47.15-9.43l2.39-11.96l6.89,1.38c-2.11-2.07-3.56-3.91-4.35-5.54c-1.4-2.91-1.71-6.31-0.94-10.2
          C52.05,369.19,54.12,365.46,57.29,362.88z"/>
      </g>
      <g>
        <path fill="#fff" d="M53.8,307.19l5.52-12.2l24.45,11.07l-14.07-34l7.25-16.02l13.38,35.4l46.53-9.78l-7.22,15.94l-34.18,6.55
          l3.35,8.71l19.85,8.99l-5.52,12.2L53.8,307.19z"/>
      </g>
      <g>
        <path fill="#fff" d="M116.57,226.41c3.06-2.05,6.55-3.13,10.46-3.26c3.47-0.15,6.96,0.53,10.48,2.04
          c2.06,0.89,4.83,2.47,8.32,4.73l-18.65,29.72c4.2,2.4,7.96,2.78,11.29,1.14c2.05-0.99,3.79-2.63,5.23-4.92
          c1.52-2.43,2.14-4.8,1.85-7.1c-0.15-1.25-0.63-2.57-1.43-3.96l6.84-10.89c2.24,1.81,3.87,4.67,4.89,8.58
          c1.67,6.14,0.45,12.51-3.68,19.09c-3.41,5.43-8.09,9.17-14.04,11.22c-5.95,2.05-12.7,0.71-20.24-4.02
          c-7.07-4.44-11.31-9.71-12.73-15.82c-1.42-6.11-0.25-12.16,3.5-18.14C110.87,231.25,113.51,228.46,116.57,226.41z
            M115.77,248.15c0.61,2.48,2.12,4.75,4.53,6.8l11.53-18.38c-2.95-1.58-5.7-1.98-8.23-1.2c-2.53,0.78-4.59,2.43-6.17,4.95
          C115.72,243.06,115.16,245.67,115.77,248.15z"/>
      </g>
      <g>
        <path fill="#fff" d="M155.12,203.82c1.25-2,2.02-3.54,2.32-4.6c0.55-1.89,0.19-3.34-1.06-4.37c-1.53-1.25-3.03-1.57-4.49-0.96
          c-1.46,0.6-3.04,1.95-4.73,4.03c-1.9,2.34-2.68,4.46-2.33,6.36c0.28,1.38,1.05,2.78,2.3,4.18l-7.67,9.43
          c-3.1-2.86-5.04-5.97-5.82-9.31c-1.18-5.27,0.79-11.06,5.93-17.38c3.34-4.11,7.12-7.1,11.34-8.97
          c4.22-1.87,8.58-0.98,13.08,2.69l17.14,13.94c1.19,0.97,2.65,2.12,4.38,3.45c1.34,0.97,2.36,1.48,3.08,1.54
          c0.72,0.05,1.49-0.12,2.3-0.52l1.44,1.17l-8.64,10.63c-1-0.32-1.87-0.69-2.63-1.11c-0.76-0.42-1.58-0.95-2.49-1.57
          c0.36,2.55,0.33,5.12-0.08,7.73c-0.51,3.1-1.85,5.98-4.02,8.65c-2.77,3.4-6.02,5.43-9.76,6.08c-3.74,0.65-7.37-0.47-10.92-3.35
          c-4.59-3.74-6.47-8.23-5.62-13.47c0.47-2.87,2.01-6.4,4.62-10.59L155.12,203.82z M164.54,201.55c-0.12,0.94-0.32,1.83-0.6,2.66
          c-0.28,0.83-0.77,1.89-1.46,3.17l-1.4,2.56c-1.33,2.38-2.1,4.24-2.32,5.58c-0.36,2.26,0.4,4.16,2.27,5.68
          c1.67,1.36,3.26,1.87,4.76,1.53c1.51-0.34,2.81-1.18,3.9-2.52c1.74-2.14,2.72-4.6,2.95-7.41c0.23-2.8-1.26-5.57-4.48-8.3
          L164.54,201.55z"/>
      </g>
      <g>
        <path fill="#fff" d="M211.94,125.2c2.12-0.66,4.48-0.73,7.09-0.19c2.11,0.45,4.12,1.47,6.03,3.07c1.25,1.07,2.87,2.82,4.84,5.24
          l19.11,23.59l-10,8.15l-19.37-23.78c-1.15-1.42-2.33-2.39-3.53-2.94c-2.28-1.03-4.59-0.59-6.92,1.3
          c-2.7,2.2-3.64,4.83-2.85,7.91c0.44,1.62,1.34,3.26,2.7,4.92l18.12,22.23l-9.83,8.01l-18.12-22.23
          c-1.8-2.21-3.35-3.64-4.62-4.27c-2.29-1.13-4.64-0.72-7.04,1.23c-2.79,2.27-3.92,4.7-3.41,7.28c0.31,1.46,1.3,3.2,2.95,5.23
          l18.31,22.47l-9.9,8.07l-30.38-37.27l9.49-7.73l4.44,5.45c-0.37-2.93-0.36-5.24,0.05-6.94c0.7-3.01,2.56-5.74,5.58-8.2
          c2.85-2.33,5.67-3.58,8.46-3.76c2.36,0.01,4.66,0.63,6.88,1.86c-0.51-3.23-0.23-6.14,0.83-8.71c1.17-2.67,2.99-5,5.46-7.01
          C207.94,126.86,209.82,125.86,211.94,125.2z"/>
      </g>
      <g>
        <path fill="#fff" d="M259.53,117.94c1.9-1.41,3.18-2.55,3.84-3.43c1.2-1.56,1.41-3.04,0.61-4.45c-0.97-1.72-2.24-2.57-3.82-2.54
          c-1.58,0.03-3.54,0.7-5.88,2.02c-2.63,1.48-4.13,3.17-4.5,5.07c-0.25,1.39-0.04,2.97,0.61,4.73l-10.59,5.96
          c-1.83-3.8-2.5-7.4-2-10.79c0.83-5.34,4.79-10,11.89-13.99c4.62-2.6,9.23-3.99,13.84-4.19c4.61-0.19,8.34,2.24,11.19,7.3
          l10.84,19.26c0.75,1.34,1.69,2.94,2.81,4.81c0.89,1.39,1.65,2.25,2.3,2.56c0.65,0.31,1.43,0.43,2.33,0.36l0.91,1.62l-11.94,6.72
          c-0.81-0.66-1.49-1.32-2.04-2c-0.55-0.67-1.13-1.46-1.74-2.37c-0.6,2.5-1.57,4.89-2.91,7.16c-1.61,2.7-3.91,4.89-6.91,6.58
          c-3.82,2.15-7.59,2.84-11.3,2.08c-3.71-0.77-6.69-3.14-8.93-7.12c-2.9-5.16-3-10.02-0.29-14.59c1.49-2.49,4.22-5.21,8.18-8.15
          L259.53,117.94z M269.12,119.29c-0.46,0.83-0.97,1.58-1.53,2.26c-0.56,0.67-1.41,1.48-2.52,2.41l-2.24,1.87
          c-2.11,1.73-3.51,3.18-4.2,4.34c-1.17,1.97-1.15,4.01,0.03,6.12c1.05,1.87,2.34,2.93,3.87,3.17c1.53,0.24,3.04-0.07,4.56-0.92
          c2.4-1.35,4.22-3.29,5.46-5.81c1.24-2.52,0.87-5.64-1.12-9.36L269.12,119.29z"/>
      </g>
      <g>
        <path fill="#fff" d="M319.21,73.22c3.88,1.28,6.92,4.74,9.12,10.37l11.78,30.22l-12.03,4.68l-10.64-27.3
          c-0.92-2.36-1.94-4.05-3.06-5.07c-2.04-1.86-4.67-2.16-7.89-0.91c-3.95,1.54-6.01,4.28-6.16,8.23
          c-0.07,2.08,0.44,4.51,1.52,7.28l9.47,24.3l-11.74,4.57l-17.46-44.8l11.37-4.43l2.55,6.55c0.6-2.89,1.38-5.11,2.32-6.64
          c1.7-2.75,4.39-4.84,8.09-6.28C311.07,72.19,315.32,71.93,319.21,73.22z"/>
      </g>
      <g>
        <path fill="#fff" d="M361.22,78.31c2.22-0.82,3.77-1.56,4.65-2.21c1.59-1.16,2.2-2.52,1.84-4.1c-0.45-1.92-1.43-3.09-2.96-3.51
          c-1.52-0.42-3.59-0.32-6.21,0.29c-2.94,0.68-4.85,1.88-5.74,3.6c-0.63,1.27-0.87,2.83-0.75,4.71l-11.84,2.75
          c-0.69-4.16-0.32-7.8,1.11-10.92c2.3-4.89,7.41-8.25,15.33-10.1c5.16-1.2,9.98-1.24,14.46-0.14c4.48,1.11,7.38,4.49,8.69,10.14
          l5,21.52c0.35,1.49,0.79,3.29,1.35,5.4c0.46,1.59,0.96,2.62,1.49,3.1c0.54,0.48,1.25,0.81,2.14,1l0.42,1.81l-13.35,3.1
          c-0.59-0.86-1.06-1.69-1.39-2.49c-0.34-0.8-0.67-1.72-1-2.76c-1.28,2.23-2.88,4.25-4.8,6.06c-2.3,2.14-5.13,3.6-8.48,4.37
          c-4.27,0.99-8.08,0.6-11.43-1.18c-3.35-1.78-5.54-4.89-6.57-9.34c-1.34-5.77-0.07-10.46,3.81-14.09
          c2.13-1.98,5.51-3.82,10.14-5.53L361.22,78.31z M370.05,82.29c-0.67,0.67-1.37,1.25-2.1,1.74c-0.73,0.49-1.76,1.02-3.1,1.6
          l-2.67,1.17c-2.51,1.07-4.26,2.06-5.25,2.99c-1.67,1.57-2.23,3.53-1.69,5.88c0.49,2.1,1.43,3.47,2.83,4.13
          c1.4,0.66,2.94,0.79,4.63,0.4c2.68-0.62,4.97-1.97,6.87-4.05c1.9-2.07,2.41-5.17,1.55-9.3L370.05,82.29z"/>
      </g>
      <g>
        <path fill="#fff" d="M431.06,52.15c3.37,2.32,5.32,6.49,5.84,12.51l2.83,32.31l-12.86,1.12l-2.55-29.19
          c-0.22-2.52-0.73-4.43-1.51-5.72c-1.44-2.36-3.88-3.39-7.32-3.09c-4.22,0.37-6.97,2.43-8.22,6.18
          c-0.65,1.98-0.84,4.45-0.58,7.42l2.27,25.98l-12.55,1.1l-4.19-47.9l12.15-1.06l0.61,7c1.39-2.61,2.76-4.51,4.09-5.73
          c2.4-2.16,5.58-3.42,9.52-3.76C423.53,48.88,427.69,49.83,431.06,52.15z"/>
      </g>
      <g>
        <path fill="#fff" d="M521.14,40.49c4.3,2.16,7.56,5.42,9.77,9.8c1.77,3.54,2.79,7.23,3.05,11.09c0.26,3.85,0.14,7.47-0.36,10.85
          c-1.27,8.57-4.07,15.57-8.39,21c-5.86,7.32-13.65,10.26-23.4,8.82l-27.78-4.12l9.55-64.44l27.78,4.12
          C515.36,38.26,518.62,39.22,521.14,40.49z M495,46.62l-6.24,42.05l12.44,1.84c6.36,0.94,11.26-1.53,14.7-7.43
          c1.88-3.24,3.18-7.23,3.88-11.98c0.97-6.56,0.69-11.74-0.85-15.56c-1.54-3.82-5.37-6.18-11.5-7.09L495,46.62z"/>
      </g>
      <g>
        <path fill="#fff" d="M561.87,85.08c2.34,0.35,4.05,0.45,5.14,0.3c1.95-0.25,3.14-1.15,3.58-2.71c0.53-1.9,0.23-3.4-0.9-4.5
          c-1.13-1.1-2.99-2.01-5.58-2.74c-2.9-0.82-5.16-0.68-6.76,0.39c-1.16,0.81-2.13,2.06-2.92,3.77l-11.7-3.29
          c1.4-3.98,3.47-7,6.23-9.04c4.37-3.18,10.47-3.67,18.3-1.47c5.1,1.43,9.35,3.71,12.74,6.84c3.39,3.13,4.31,7.48,2.73,13.07
          l-5.98,21.27c-0.41,1.48-0.89,3.27-1.42,5.38c-0.36,1.61-0.42,2.76-0.19,3.44c0.24,0.68,0.7,1.31,1.39,1.91l-0.5,1.79
          l-13.19-3.71c-0.11-1.04-0.11-1.99-0.02-2.85c0.09-0.86,0.24-1.83,0.45-2.9c-2.19,1.34-4.57,2.34-7.12,3
          c-3.05,0.77-6.23,0.68-9.53-0.25c-4.22-1.19-7.37-3.37-9.45-6.54c-2.08-3.17-2.5-6.95-1.27-11.35c1.6-5.7,4.98-9.21,10.12-10.51
          c2.82-0.71,6.67-0.7,11.55,0.03L561.87,85.08z M567.7,92.82c-0.91,0.26-1.8,0.43-2.68,0.51c-0.87,0.08-2.04,0.05-3.49-0.09
          l-2.9-0.27c-2.72-0.27-4.73-0.24-6.04,0.09c-2.22,0.57-3.66,2.02-4.31,4.34c-0.58,2.07-0.42,3.73,0.49,4.98
          c0.91,1.25,2.2,2.11,3.87,2.58c2.65,0.74,5.31,0.66,7.97-0.24c2.66-0.9,4.61-3.37,5.83-7.4L567.7,92.82z"/>
      </g>
      <g>
        <path fill="#fff" d="M635.59,95.09c1.88,3.64,1.63,8.23-0.75,13.79l-12.75,29.83l-11.87-5.07l11.51-26.94
          c1-2.33,1.45-4.25,1.36-5.76c-0.16-2.76-1.82-4.82-5-6.17c-3.9-1.67-7.29-1.14-10.16,1.57c-1.51,1.44-2.84,3.53-4.01,6.26
          l-10.25,23.98l-11.58-4.95l18.89-44.22l11.22,4.79l-2.76,6.46c2.46-1.64,4.56-2.68,6.31-3.12c3.14-0.77,6.53-0.38,10.17,1.17
          C630.5,88.66,633.72,91.45,635.59,95.09z"/>
      </g>
      <g>
        <path fill="#fff" d="M692.03,103.85l10.57,8.22l-16.47,21.19l36.34-5.75l13.89,10.79l-37.55,4.75l-1.34,47.53l-13.82-10.74
          l1.6-34.77l-9.26,1.23l-13.37,17.2l-10.57-8.22L692.03,103.85z"/>
      </g>
      <g>
        <path fill="#fff" d="M755.53,187.23c1.03,3.53,1.02,7.19-0.03,10.96c-0.9,3.36-2.6,6.48-5.09,9.38
          c-1.46,1.69-3.8,3.86-7.01,6.52l-22.75-26.71c-3.55,3.28-5.04,6.76-4.47,10.43c0.33,2.25,1.37,4.4,3.12,6.46
          c1.86,2.18,3.93,3.48,6.22,3.89c1.24,0.23,2.64,0.17,4.2-0.18l8.34,9.79c-2.39,1.59-5.61,2.29-9.66,2.09
          c-6.36-0.25-12.06-3.33-17.1-9.24c-4.16-4.88-6.32-10.47-6.49-16.76c-0.17-6.29,3.13-12.33,9.91-18.1
          c6.35-5.41,12.66-7.88,18.92-7.4c6.26,0.48,11.68,3.41,16.25,8.78C752.62,180.33,754.5,183.69,755.53,187.23z M735.03,179.94
          c-2.55-0.17-5.17,0.59-7.85,2.28l14.07,16.52c2.4-2.34,3.6-4.84,3.62-7.49c0.02-2.65-0.94-5.11-2.87-7.37
          C739.9,181.42,737.58,180.1,735.03,179.94z"/>
      </g>
      <g>
        <path fill="#fff" d="M788.15,242.54c-1.88,5.51-5.84,10.22-11.9,14.14c-6.28,4.07-12.45,5.94-18.52,5.63
          c-6.06-0.31-10.82-3.14-14.28-8.48c-2.17-3.36-3.25-6.49-3.23-9.39c0-1.73,0.53-3.94,1.6-6.64l-5.08,3.29l-6.75-10.43
          l54.61-35.35l6.84,10.57L772,218.47c2.75,0.13,5.14,0.68,7.18,1.66c2.48,1.12,4.67,3.16,6.59,6.12
          C789.24,231.6,790.03,237.03,788.15,242.54z M757.8,249.64c3.19,0.1,6.57-1.02,10.16-3.34c2.87-1.86,5-3.77,6.4-5.73
          c2.64-3.73,2.73-7.5,0.26-11.31c-2.5-3.87-5.96-5.39-10.39-4.58c-2.34,0.45-4.98,1.63-7.92,3.54c-3.46,2.24-5.83,4.87-7.11,7.89
          c-1.27,3.02-0.89,6.11,1.16,9.28C752.13,248.13,754.61,249.55,757.8,249.64z"/>
      </g>
      <g>
        <path fill="#fff" d="M814.77,283.81c0.12,3.68-0.8,7.22-2.75,10.61c-1.71,3.03-4.13,5.63-7.27,7.82
          c-1.84,1.28-4.64,2.8-8.41,4.57l-15.39-31.53c-4.26,2.3-6.56,5.29-6.92,8.99c-0.24,2.26,0.23,4.6,1.42,7.04
          c1.26,2.58,2.94,4.35,5.05,5.32c1.14,0.53,2.52,0.82,4.12,0.88l5.64,11.56c-2.72,0.95-6.01,0.82-9.87-0.38
          c-6.1-1.82-10.86-6.22-14.26-13.2c-2.81-5.76-3.52-11.71-2.12-17.85c1.4-6.14,6.1-11.16,14.11-15.07
          c7.5-3.66,14.22-4.48,20.16-2.46c5.94,2.02,10.46,6.21,13.56,12.55C813.67,276.4,814.65,280.13,814.77,283.81z M796.73,271.65
          c-2.43-0.8-5.15-0.71-8.17,0.26l9.52,19.5c2.9-1.67,4.69-3.79,5.37-6.35c0.67-2.56,0.36-5.18-0.94-7.85
          C801.08,274.29,799.16,272.44,796.73,271.65z"/>
      </g>
      <g>
        <path fill="#fff" d="M834.78,328.4c0.04,0.16,0.15,0.5,0.32,1.04L823,333.95c-0.2-0.78-0.39-1.46-0.58-2.05
          c-0.19-0.59-0.35-1.06-0.48-1.42c-1.77-4.75-4.51-7.36-8.2-7.84c-2.08-0.26-4.93,0.28-8.54,1.63l-21.58,8.04l-4.43-11.89
          l45.14-16.82l4.2,11.26l-7.87,2.93c3.69,0.7,6.34,1.52,7.94,2.46c2.67,1.52,4.67,4.05,5.98,7.58
          C834.67,328.06,834.73,328.25,834.78,328.4z"/>
      </g>
      <g>
        <path fill="#fff" d="M808.22,357.7c-2.1,0.82-3.5,1.78-4.19,2.87c-1.23,1.94-1.32,4.96-0.26,9.06c0.62,2.41,1.48,4.23,2.56,5.46
          c1.08,1.23,2.33,1.67,3.76,1.3c1.37-0.35,2.26-1.2,2.68-2.52c0.42-1.33,0.54-5.9,0.37-13.71c-0.06-5.64,0.61-9.8,2.02-12.47
          c1.38-2.67,3.89-4.48,7.54-5.42c4.31-1.12,8.45-0.38,12.42,2.2c3.97,2.58,6.76,6.95,8.35,13.1c1.51,5.83,1.58,10.88,0.21,15.16
          c-1.37,4.28-4.84,7.42-10.4,9.45l-3.16-12.19c1.52-0.58,2.65-1.34,3.38-2.29c1.3-1.77,1.54-4.28,0.7-7.51
          c-0.69-2.66-1.59-4.45-2.71-5.36c-1.12-0.92-2.24-1.23-3.35-0.94c-1.4,0.36-2.25,1.22-2.57,2.59
          c-0.35,1.37-0.37,5.91-0.08,13.61c0.12,5.15-0.66,9.24-2.35,12.26c-1.72,3-4.33,4.96-7.84,5.87c-4.62,1.2-8.84,0.45-12.65-2.23
          c-3.82-2.69-6.66-7.63-8.52-14.83c-1.9-7.34-1.76-13.17,0.43-17.47c2.19-4.3,5.68-7.08,10.47-8.32L808.22,357.7z"/>
      </g>
      <g>
        <path fill="#fff" d="M849.67,392.25l2,12.62l-47.58,7.52l-1.99-12.62L849.67,392.25z M857.34,403.97l-1.99-12.62l11.48-1.81
          l1.99,12.62L857.34,403.97z"/>
      </g>
      <g>
        <path fill="#fff" d="M855.53,455.05c-0.92,2.47-2.4,4.53-4.44,6.18c-1.73,1.41-3.54,2.3-5.43,2.68
          c-1.89,0.38-4.98,0.68-9.28,0.89l-28.28,1.36l-0.62-12.85l29.3-1.41c2.59-0.12,4.66-0.66,6.21-1.61
          c2.18-1.25,3.2-3.46,3.05-6.65c-0.16-3.3-1.39-5.75-3.7-7.36c-2.31-1.6-5.52-2.3-9.65-2.11l-26.07,1.25l-0.6-12.58l64.85-3.11
          l0.6,12.58l-22.95,1.1c2.88,1.68,4.93,3.69,6.15,6.03s1.89,4.82,2.02,7.46C856.83,449.87,856.44,452.58,855.53,455.05z"/>
      </g>
      <g>
        <path fill="#fff" d="M834.92,497.67c0.06,2.36,0.25,4.07,0.59,5.12c0.58,1.88,1.68,2.9,3.29,3.06c1.96,0.2,3.39-0.35,4.28-1.66
          c0.89-1.31,1.47-3.3,1.74-5.97c0.3-3-0.21-5.2-1.55-6.6c-0.99-1-2.4-1.74-4.22-2.23l1.22-12.09c4.17,0.69,7.49,2.22,9.97,4.58
          c3.88,3.75,5.42,9.68,4.6,17.78c-0.53,5.27-2.05,9.84-4.54,13.73c-2.5,3.88-6.63,5.53-12.41,4.94l-21.98-2.23
          c-1.52-0.15-3.37-0.31-5.55-0.47c-1.65-0.08-2.79,0.06-3.42,0.41c-0.63,0.35-1.17,0.92-1.64,1.7l-1.85-0.19l1.38-13.63
          c1.01-0.28,1.94-0.45,2.81-0.52c0.86-0.06,1.84-0.08,2.94-0.06c-1.7-1.93-3.09-4.1-4.18-6.5c-1.28-2.87-1.74-6.02-1.4-9.44
          c0.44-4.36,2.05-7.84,4.81-10.44c2.76-2.59,6.42-3.66,10.96-3.2c5.89,0.6,9.92,3.32,12.1,8.16c1.18,2.66,1.83,6.45,1.96,11.38
          L834.92,497.67z M828.29,504.74c-0.42-0.85-0.74-1.7-0.96-2.55c-0.22-0.85-0.4-2-0.52-3.45l-0.24-2.91
          c-0.2-2.72-0.58-4.7-1.13-5.93c-0.94-2.09-2.62-3.26-5.02-3.5c-2.14-0.22-3.75,0.23-4.82,1.34s-1.7,2.53-1.87,4.25
          c-0.28,2.74,0.26,5.34,1.61,7.81c1.35,2.47,4.11,3.96,8.3,4.47L828.29,504.74z"/>
      </g>
      <g>
        <path fill="#fff" d="M836.68,572.38c-3.31,2.41-7.89,2.87-13.74,1.37l-31.43-8.04l3.2-12.5l28.39,7.26
          c2.45,0.63,4.42,0.78,5.9,0.47c2.7-0.58,4.48-2.54,5.34-5.88c1.05-4.11,0.02-7.38-3.1-9.81c-1.65-1.27-3.92-2.27-6.8-3.01
          l-25.26-6.46l3.12-12.2l46.58,11.91l-3.02,11.82l-6.81-1.74c2,2.18,3.35,4.1,4.05,5.76c1.24,2.98,1.38,6.39,0.39,10.23
          C842.25,566.36,839.98,569.97,836.68,572.38z"/>
      </g>
    </g>
    <g>
      <g>
        <path fill="#fff" d="M275.17,462.41h-23.64v36.07c0,5.16-1.22,9.07-3.65,11.73c-2.43,2.66-5.51,4-9.21,4
          c-3.88,0-7.01-1.32-9.39-3.95c-2.38-2.64-3.56-6.5-3.56-11.6v-98.21c0-5.68,1.3-9.73,3.91-12.17s6.75-3.65,12.43-3.65h33.11
          c9.79,0,17.32,0.75,22.6,2.26c5.21,1.45,9.72,3.85,13.52,7.21c3.79,3.36,6.68,7.47,8.65,12.34c1.97,4.87,2.96,10.34,2.96,16.43
          c0,12.98-4,22.81-11.99,29.51S290.99,462.41,275.17,462.41z M268.91,404h-17.38v38.94h17.38c6.08,0,11.17-0.64,15.25-1.91
          c4.08-1.27,7.2-3.36,9.34-6.26c2.14-2.9,3.22-6.69,3.22-11.39c0-5.62-1.65-10.2-4.95-13.73C288.06,405.89,280.44,404,268.91,404
          z"/>
        <path fill="#fff" d="M238.67,516.68c-4.59,0-8.37-1.6-11.22-4.77c-2.79-3.09-4.2-7.55-4.2-13.26v-98.21
          c0-6.36,1.58-11.07,4.7-13.98c3.07-2.86,7.82-4.32,14.12-4.32h33.11c9.97,0,17.81,0.79,23.28,2.35
          c5.54,1.54,10.41,4.14,14.48,7.74c4.07,3.6,7.2,8.07,9.3,13.27c2.08,5.14,3.14,10.98,3.14,17.35c0,13.68-4.33,24.25-12.88,31.4
          c-8.42,7.04-20.97,10.62-37.31,10.62H254v33.6c0,5.77-1.45,10.28-4.3,13.4C246.8,515.07,243.08,516.68,238.67,516.68z
            M242.06,387.09c-5.01,0-8.62,1-10.74,2.99c-2.07,1.94-3.13,5.42-3.13,10.36v98.21c0,4.45,0.99,7.79,2.93,9.95
          c1.9,2.11,4.37,3.14,7.55,3.14c3.01,0,5.43-1.04,7.39-3.19c1.99-2.18,3-5.57,3-10.07v-38.54h26.11
          c15.15,0,26.63-3.18,34.14-9.46c7.47-6.26,11.11-15.29,11.11-27.61c0-5.73-0.93-10.95-2.77-15.5c-1.82-4.48-4.51-8.33-8-11.42
          c-3.49-3.09-7.71-5.34-12.54-6.68c-5.05-1.44-12.42-2.17-21.94-2.17H242.06z M268.91,445.41h-19.86v-43.88h19.86
          c12.33,0,20.39,2.09,24.62,6.39c3.77,4.04,5.66,9.23,5.66,15.47c0,5.21-1.24,9.54-3.7,12.86c-2.45,3.32-6.02,5.72-10.59,7.15
          C280.6,444.73,275.22,445.41,268.91,445.41z M254,440.47h14.91c5.81,0,10.69-0.61,14.52-1.8c3.61-1.12,6.25-2.88,8.09-5.37
          c1.81-2.45,2.73-5.79,2.73-9.92c0-5.02-1.4-8.96-4.29-12.04c-2.16-2.19-7.61-4.86-21.05-4.86H254V440.47z"/>
      </g>
      <g>
        <path fill="#fff" d="M379.3,435.12c5.33,0,9.92-1.56,13.78-4.69c3.85-3.13,5.78-7.62,5.78-13.47c0-4.46-1.54-8.3-4.61-11.52
          c-3.07-3.22-7.21-4.82-12.43-4.82c-3.53,0-6.45,0.49-8.73,1.48c-2.29,0.99-4.1,2.29-5.43,3.91c-1.33,1.62-2.59,3.71-3.78,6.26
          c-1.19,2.55-2.27,4.95-3.26,7.21c-0.58,1.22-1.62,2.17-3.13,2.87c-1.51,0.7-3.25,1.04-5.21,1.04c-2.32,0-4.45-0.94-6.39-2.82
          c-1.94-1.88-2.91-4.39-2.91-7.52c0-3.01,0.91-6.18,2.74-9.52c1.83-3.33,4.49-6.5,8-9.52c3.51-3.01,7.87-5.43,13.08-7.26
          s11.04-2.74,17.47-2.74c5.62,0,10.75,0.77,15.38,2.3c4.64,1.54,8.66,3.75,12.08,6.65c3.42,2.9,6,6.26,7.74,10.08
          s2.61,7.94,2.61,12.34c0,5.79-1.26,10.76-3.78,14.91c-2.52,4.14-6.13,8.19-10.82,12.12c4.52,2.43,8.33,5.21,11.43,8.34
          c3.1,3.13,5.43,6.59,7,10.39c1.56,3.8,2.35,7.9,2.35,12.3c0,5.27-1.06,10.37-3.17,15.3c-2.12,4.93-5.23,9.31-9.34,13.17
          c-4.11,3.85-9,6.87-14.65,9.04s-11.89,3.26-18.73,3.26c-6.95,0-13.18-1.25-18.69-3.74c-5.51-2.49-10.04-5.61-13.6-9.34
          s-6.26-7.6-8.08-11.6s-2.74-7.3-2.74-9.91c0-3.36,1.09-6.07,3.26-8.13c2.17-2.06,4.88-3.09,8.13-3.09
          c1.62,0,3.19,0.48,4.69,1.43c1.51,0.96,2.49,2.1,2.96,3.43c3.01,8.06,6.24,14.04,9.69,17.95c3.45,3.91,8.3,5.87,14.56,5.87
          c3.59,0,7.05-0.88,10.39-2.65c3.33-1.77,6.08-4.39,8.26-7.87s3.26-7.5,3.26-12.08c0-6.78-1.86-12.09-5.56-15.95
          c-3.71-3.85-8.87-5.78-15.47-5.78c-1.16,0-2.96,0.12-5.39,0.35c-2.43,0.23-4,0.35-4.69,0.35c-3.19,0-5.65-0.8-7.39-2.39
          c-1.74-1.59-2.61-3.81-2.61-6.65c0-2.78,1.04-5.03,3.13-6.74c2.09-1.71,5.18-2.56,9.3-2.56H379.3z"/>
        <path fill="#fff" d="M382.34,516.68c-7.27,0-13.9-1.33-19.71-3.96c-5.77-2.61-10.6-5.94-14.37-9.89
          c-3.74-3.92-6.61-8.05-8.54-12.28c-1.99-4.36-2.96-7.94-2.96-10.93c0-4.05,1.36-7.39,4.03-9.92c2.64-2.5,5.94-3.76,9.83-3.76
          c2.09,0,4.11,0.61,6.02,1.82c1.98,1.26,3.31,2.84,3.97,4.71c2.87,7.68,5.98,13.46,9.21,17.13c2.98,3.38,7.14,5.03,12.7,5.03
          c3.17,0,6.27-0.79,9.23-2.36c2.93-1.55,5.39-3.9,7.32-6.99c1.91-3.06,2.88-6.68,2.88-10.77c0-6.17-1.59-10.83-4.87-14.23
          c-3.25-3.38-7.73-5.02-13.69-5.02c-1.07,0-2.8,0.11-5.15,0.34c-2.52,0.24-4.14,0.36-4.93,0.36c-3.81,0-6.86-1.02-9.06-3.04
          c-2.26-2.07-3.41-4.92-3.41-8.47c0-3.54,1.36-6.45,4.03-8.65c2.53-2.07,6.19-3.12,10.87-3.12h3.56c4.79,0,8.79-1.35,12.22-4.14
          c3.27-2.66,4.87-6.44,4.87-11.55c0-3.84-1.28-7.04-3.92-9.81c-2.61-2.73-6.09-4.06-10.64-4.06c-3.18,0-5.79,0.43-7.76,1.28
          c-1.91,0.82-3.43,1.9-4.5,3.21c-1.2,1.45-2.36,3.38-3.45,5.73c-1.18,2.53-2.27,4.94-3.23,7.16c-0.87,1.82-2.32,3.18-4.36,4.13
          c-1.83,0.84-3.93,1.27-6.25,1.27c-2.97,0-5.7-1.19-8.11-3.52c-2.43-2.35-3.66-5.48-3.66-9.29c0-3.42,1.02-7.02,3.04-10.7
          c1.96-3.58,4.84-7.01,8.55-10.2c3.73-3.2,8.39-5.8,13.88-7.72c5.45-1.91,11.61-2.88,18.29-2.88c5.86,0,11.29,0.82,16.16,2.43
          c4.92,1.63,9.26,4.02,12.9,7.11c3.68,3.12,6.51,6.81,8.39,10.95c1.88,4.13,2.83,8.63,2.83,13.36c0,6.23-1.39,11.68-4.14,16.19
          c-2.15,3.54-5.08,7.03-8.72,10.42c3.43,2.11,6.44,4.47,8.97,7.03c3.31,3.35,5.85,7.11,7.53,11.18
          c1.68,4.08,2.53,8.53,2.53,13.24c0,5.59-1.13,11.06-3.37,16.27c-2.24,5.22-5.58,9.93-9.92,14c-4.33,4.05-9.53,7.27-15.45,9.54
          C396.05,515.53,389.45,516.68,382.34,516.68z M350.61,470.88c-2.61,0-4.71,0.79-6.43,2.41c-1.67,1.58-2.49,3.66-2.49,6.33
          c0,2.24,0.85,5.23,2.51,8.88c1.7,3.73,4.27,7.4,7.62,10.92c3.33,3.49,7.65,6.45,12.83,8.8c5.16,2.33,11.1,3.52,17.67,3.52
          c6.5,0,12.5-1.04,17.84-3.09c5.32-2.05,9.98-4.92,13.84-8.54c3.84-3.6,6.79-7.75,8.76-12.34c1.97-4.59,2.97-9.41,2.97-14.32
          c0-4.06-0.73-7.88-2.16-11.36c-1.43-3.48-3.61-6.7-6.47-9.59c-2.91-2.94-6.56-5.6-10.84-7.91l-3.21-1.73l2.79-2.34
          c4.46-3.75,7.93-7.62,10.3-11.52c2.27-3.73,3.42-8.31,3.42-13.62c0-4.03-0.8-7.84-2.39-11.32c-1.58-3.47-3.96-6.57-7.08-9.22
          c-3.16-2.68-6.95-4.76-11.26-6.19c-4.37-1.44-9.28-2.18-14.61-2.18c-6.12,0-11.73,0.87-16.65,2.6c-4.9,1.71-9.03,4-12.29,6.8
          c-3.26,2.8-5.76,5.77-7.44,8.83c-1.61,2.95-2.43,5.75-2.43,8.33c0,2.46,0.71,4.33,2.16,5.74c1.48,1.43,3,2.13,4.67,2.13
          c1.6,0,3.01-0.27,4.18-0.82c0.97-0.45,1.61-1,1.93-1.69c0.95-2.18,2.05-4.62,3.25-7.2c1.27-2.73,2.65-5.01,4.11-6.78
          c1.58-1.92,3.72-3.47,6.37-4.61c2.59-1.11,5.86-1.68,9.71-1.68c5.89,0,10.67,1.88,14.22,5.59c3.51,3.68,5.29,8.13,5.29,13.22
          c0,6.61-2.25,11.78-6.69,15.39c-4.29,3.48-9.45,5.25-15.33,5.25h-3.56c-3.51,0-6.11,0.67-7.73,2c-1.52,1.24-2.22,2.78-2.22,4.82
          c0,2.13,0.59,3.71,1.8,4.83c1.26,1.16,3.18,1.74,5.72,1.74c0.35,0,1.4-0.04,4.46-0.34c2.55-0.24,4.39-0.36,5.62-0.36
          c7.27,0,13.08,2.2,17.25,6.54c4.15,4.31,6.25,10.26,6.25,17.66c0,5.03-1.22,9.53-3.63,13.39c-2.4,3.83-5.49,6.78-9.2,8.74
          c-3.68,1.95-7.56,2.94-11.54,2.94c-6.97,0-12.49-2.26-16.41-6.7c-3.63-4.12-7.05-10.42-10.15-18.72
          c-0.3-0.85-0.93-1.56-1.96-2.21C352.87,471.22,351.77,470.88,350.61,470.88z"/>
      </g>
      <g>
        <path fill="#fff" d="M469.08,399.4l28.86,85.44l28.94-86.04c1.51-4.52,2.64-7.66,3.39-9.43c0.75-1.77,2-3.36,3.74-4.78
          c1.74-1.42,4.11-2.13,7.13-2.13c2.2,0,4.24,0.55,6.13,1.65c1.88,1.1,3.36,2.56,4.43,4.39c1.07,1.83,1.61,3.67,1.61,5.52
          c0,1.28-0.17,2.65-0.52,4.13s-0.78,2.93-1.3,4.35c-0.52,1.42-1.04,2.88-1.56,4.39l-30.85,83.26c-1.1,3.19-2.2,6.21-3.3,9.08
          c-1.1,2.87-2.38,5.39-3.82,7.56c-1.45,2.17-3.38,3.95-5.78,5.35c-2.4,1.39-5.35,2.09-8.82,2.09s-6.42-0.68-8.82-2.04
          c-2.4-1.36-4.35-3.16-5.82-5.39c-1.48-2.23-2.77-4.77-3.87-7.6c-1.1-2.84-2.2-5.85-3.3-9.04l-30.33-82.57
          c-0.52-1.51-1.06-2.98-1.61-4.43c-0.55-1.45-1.01-3.01-1.39-4.69c-0.38-1.68-0.56-3.1-0.56-4.26c0-2.96,1.19-5.65,3.56-8.08
          c2.38-2.43,5.36-3.65,8.95-3.65c4.4,0,7.52,1.35,9.34,4.04S467.17,393.49,469.08,399.4z"/>
        <path fill="#fff" d="M497.32,516.68c-3.89,0-7.27-0.79-10.04-2.36c-2.73-1.55-4.98-3.63-6.67-6.17
          c-1.57-2.37-2.95-5.09-4.11-8.08c-1.12-2.88-2.24-5.95-3.33-9.13l-30.32-82.52c-0.53-1.52-1.06-2.99-1.6-4.41
          c-0.59-1.54-1.09-3.24-1.49-5.03c-0.42-1.87-0.62-3.44-0.62-4.8c0-3.61,1.44-6.91,4.27-9.81c2.85-2.92,6.45-4.4,10.72-4.4
          c5.25,0,9.09,1.73,11.39,5.13c1.97,2.91,3.91,7.33,5.91,13.52l26.5,78.47l26.6-79.09c1.54-4.62,2.67-7.76,3.46-9.61
          c0.91-2.13,2.4-4.05,4.45-5.73c2.18-1.78,5.11-2.69,8.69-2.69c2.63,0,5.12,0.67,7.37,1.99c2.24,1.31,4.03,3.09,5.32,5.27
          c1.29,2.2,1.95,4.48,1.95,6.77c0,1.46-0.2,3.04-0.59,4.69c-0.37,1.57-0.84,3.13-1.39,4.63c-0.52,1.41-1.03,2.85-1.55,4.35
          l-30.87,83.31c-1.07,3.11-2.19,6.19-3.31,9.11c-1.16,3.02-2.53,5.73-4.08,8.05c-1.65,2.48-3.87,4.54-6.6,6.11
          C504.61,515.87,501.23,516.68,497.32,516.68z M454.13,384.92c-2.93,0-5.27,0.95-7.18,2.9c-1.92,1.97-2.86,4.05-2.86,6.36
          c0,0.98,0.17,2.23,0.51,3.72c0.35,1.57,0.78,3.03,1.29,4.36c0.56,1.47,1.11,2.98,1.63,4.5l30.32,82.52
          c1.09,3.17,2.19,6.18,3.29,9c1.03,2.66,2.25,5.06,3.62,7.13c1.25,1.89,2.93,3.44,4.98,4.6c2.02,1.14,4.58,1.72,7.6,1.72
          c3.02,0,5.57-0.59,7.58-1.75c2.06-1.19,3.73-2.73,4.96-4.58c1.34-2.01,2.54-4.39,3.57-7.08c1.1-2.86,2.2-5.89,3.27-9
          l30.87-83.31c0.51-1.47,1.04-2.95,1.56-4.38c0.48-1.32,0.89-2.69,1.22-4.06c0.3-1.29,0.46-2.48,0.46-3.56
          c0-1.42-0.41-2.82-1.27-4.27c-0.86-1.47-2.02-2.61-3.55-3.51c-1.51-0.88-3.11-1.31-4.88-1.31c-2.41,0-4.29,0.53-5.56,1.57
          c-1.42,1.16-2.44,2.45-3.03,3.83c-0.73,1.7-1.84,4.81-3.32,9.24l-31.28,93l-31.21-92.42c-1.83-5.66-3.61-9.79-5.3-12.28
          C460.08,385.89,457.69,384.92,454.13,384.92z"/>
      </g>
      <g>
        <path fill="#fff" d="M678.89,471.79c0,4.06-1,8.45-3,13.17c-2,4.72-5.14,9.36-9.43,13.91c-4.29,4.55-9.76,8.24-16.43,11.08
          c-6.66,2.84-14.43,4.26-23.29,4.26c-6.72,0-12.83-0.64-18.34-1.91c-5.51-1.27-10.5-3.26-14.99-5.95
          c-4.49-2.69-8.62-6.24-12.39-10.65c-3.36-4-6.23-8.47-8.6-13.43c-2.38-4.95-4.16-10.24-5.35-15.86
          c-1.19-5.62-1.78-11.59-1.78-17.9c0-10.26,1.49-19.44,4.48-27.55c2.98-8.11,7.26-15.05,12.82-20.82
          c5.56-5.76,12.08-10.15,19.56-13.17c7.47-3.01,15.44-4.52,23.9-4.52c10.31,0,19.5,2.06,27.55,6.17
          c8.05,4.11,14.22,9.2,18.51,15.25c4.29,6.06,6.43,11.78,6.43,17.17c0,2.96-1.04,5.56-3.13,7.82c-2.09,2.26-4.61,3.39-7.56,3.39
          c-3.3,0-5.78-0.78-7.43-2.35c-1.65-1.56-3.49-4.26-5.52-8.08c-3.36-6.31-7.32-11.04-11.86-14.17
          c-4.55-3.13-10.16-4.69-16.82-4.69c-10.6,0-19.05,4.03-25.34,12.08c-6.29,8.05-9.43,19.5-9.43,34.33
          c0,9.91,1.39,18.15,4.17,24.73c2.78,6.58,6.72,11.49,11.82,14.73c5.1,3.25,11.07,4.87,17.9,4.87c7.42,0,13.69-1.84,18.82-5.52
          c5.13-3.68,9-9.08,11.6-16.21c1.1-3.36,2.46-6.1,4.08-8.21c1.62-2.11,4.23-3.17,7.82-3.17c3.07,0,5.71,1.07,7.91,3.22
          C677.79,465.94,678.89,468.61,678.89,471.79z"/>
        <path fill="#fff" d="M626.74,516.68c-6.87,0-13.23-0.66-18.9-1.98c-5.73-1.33-11.01-3.43-15.71-6.24
          c-4.7-2.82-9.07-6.57-12.99-11.16c-3.49-4.15-6.5-8.85-8.95-13.97c-2.45-5.11-4.31-10.63-5.54-16.42
          c-1.22-5.76-1.83-11.96-1.83-18.42c0-10.5,1.56-20.06,4.63-28.4c3.09-8.4,7.58-15.69,13.36-21.68
          c5.78-5.99,12.65-10.61,20.41-13.74c7.74-3.12,16.09-4.7,24.83-4.7c10.66,0,20.31,2.17,28.68,6.44
          c8.38,4.28,14.9,9.67,19.41,16.03c4.57,6.45,6.89,12.71,6.89,18.59c0,3.58-1.27,6.78-3.78,9.5c-2.56,2.78-5.72,4.18-9.38,4.18
          c-3.94,0-7.01-1.02-9.13-3.02c-1.86-1.77-3.83-4.62-6-8.72c-3.16-5.93-6.88-10.4-11.08-13.29c-4.11-2.83-9.29-4.26-15.42-4.26
          c-9.89,0-17.54,3.64-23.39,11.13c-5.91,7.57-8.91,18.61-8.91,32.81c0,9.53,1.34,17.53,3.98,23.76
          c2.57,6.08,6.23,10.65,10.87,13.61c4.67,2.97,10.25,4.48,16.58,4.48c6.86,0,12.7-1.7,17.38-5.06c4.69-3.37,8.3-8.43,10.72-15.05
          c1.15-3.53,2.66-6.54,4.44-8.87c2.11-2.75,5.4-4.14,9.78-4.14c3.72,0,6.96,1.32,9.63,3.92c2.69,2.62,4.05,5.91,4.05,9.77
          c0,4.37-1.07,9.13-3.19,14.13c-2.1,4.97-5.44,9.9-9.91,14.64c-4.5,4.78-10.31,8.7-17.26,11.66
          C644.06,515.18,635.9,516.68,626.74,516.68z M626.04,384.92c-8.1,0-15.83,1.46-22.98,4.34c-7.12,2.87-13.41,7.1-18.7,12.59
          c-5.3,5.49-9.43,12.2-12.28,19.95c-2.87,7.8-4.32,16.78-4.32,26.7c0,6.12,0.58,11.97,1.73,17.39c1.14,5.4,2.87,10.55,5.15,15.3
          c2.28,4.74,5.06,9.09,8.27,12.91c3.56,4.16,7.52,7.57,11.76,10.12c4.25,2.55,9.05,4.46,14.28,5.66
          c5.3,1.23,11.28,1.85,17.78,1.85c8.49,0,16-1.37,22.32-4.06c6.32-2.69,11.56-6.22,15.6-10.5c4.07-4.31,7.08-8.74,8.95-13.17
          c1.86-4.39,2.8-8.5,2.8-12.2c0-2.51-0.84-4.55-2.56-6.22c-1.74-1.69-3.76-2.51-6.18-2.51c-2.81,0-4.72,0.72-5.86,2.2
          c-1.45,1.89-2.69,4.4-3.7,7.48c-2.8,7.65-7,13.49-12.51,17.45c-5.53,3.97-12.35,5.98-20.26,5.98c-7.29,0-13.76-1.77-19.23-5.25
          c-5.51-3.5-9.8-8.84-12.77-15.85c-2.9-6.85-4.37-15.49-4.37-25.69c0-15.33,3.35-27.39,9.95-35.85
          c6.75-8.65,15.93-13.03,27.28-13.03c7.14,0,13.27,1.73,18.22,5.13c4.86,3.34,9.11,8.4,12.65,15.04
          c1.89,3.57,3.59,6.08,5.04,7.45c1.17,1.11,3.1,1.67,5.73,1.67c2.25,0,4.13-0.85,5.74-2.59c1.66-1.8,2.47-3.81,2.47-6.15
          c0-4.84-2.01-10.14-5.98-15.74c-4.04-5.7-9.96-10.57-17.62-14.48C644.81,386.9,635.91,384.92,626.04,384.92z"/>
      </g>
    </g>
  </g>
</svg>
