<svg id="Layer_4" data-name="Layer 4" xmlns="http://www.w3.org/2000/svg" viewBox="0 0 906.16 906.16"><defs><style>.cls-1{fill:#e50112;}.cls-2,.cls-3,.cls-4{fill:#fff;}.cls-2,.cls-4{stroke:#fff;stroke-miterlimit:10;}.cls-2{stroke-width:2px;}.cls-4{stroke-width:5px;}</style></defs><title>P3VC</title><path class="cls-1" d="M453.08,3.08c-248.53,0-450,201.47-450,450s201.47,450,450,450,450-201.47,450-450S701.61,3.08,453.08,3.08ZM693.5,693.5a340,340,0,1,1,99.58-240.42A337.81,337.81,0,0,1,693.5,693.5Z"/><path class="cls-1" d="M453.08,773.08a320,320,0,1,1,226.27-93.73A317.91,317.91,0,0,1,453.08,773.08Z"/><path class="cls-2" d="M266,765l11.75,8-55.49,41.49-10.68-7.31,18.74-66.64,12.08,8.27L226,798Z"/><path class="cls-2" d="M281.51,792.88l11.57,5.6L272,842.13l-11.57-5.6Zm14.09.39L284,787.67l5.09-10.53,11.57,5.6Z"/><path class="cls-2" d="M308.06,856.86l-11.88-4.42L319,791l11.88,4.42Z"/><path class="cls-2" d="M345.06,868.27l-12.22-3.39,17.53-63.19,12.22,3.39Z"/><path class="cls-2" d="M394.62,848.76a20.07,20.07,0,0,0,5.18-.25q2.89-.68,3.3-3.1a4.26,4.26,0,0,0-1.38-4.41,13.26,13.26,0,0,0-5.88-2.15q-4.49-.76-6.73,1.11a9.17,9.17,0,0,0-2.52,4.08l-12.06-2a18.55,18.55,0,0,1,5.27-9.71q6-5.47,18.16-3.41a30.92,30.92,0,0,1,13.48,5.49q5.59,4.15,4.13,12.79l-3.72,21.93q-.39,2.28-.85,5.54a7,7,0,0,0,.18,3.46,4.54,4.54,0,0,0,1.6,1.76l-.31,1.84-13.6-2.31a14,14,0,0,1-.33-2.85q0-1.31.14-3a26.16,26.16,0,0,1-6.81,3.76,18.39,18.39,0,0,1-9.57.77,16.06,16.06,0,0,1-10.16-5.54q-3.63-4.43-2.47-11.23,1.5-8.82,9-11.6,4.12-1.51,11.57-1.19Zm6.65,7.13a14,14,0,0,1-2.63.79,20.74,20.74,0,0,1-3.5.29l-2.94,0a19,19,0,0,0-6,.73,5.79,5.79,0,0,0-3.85,4.81q-.54,3.2,1,4.93a7,7,0,0,0,4.14,2.17,13.26,13.26,0,0,0,8-1.09q3.85-1.78,5.05-8Z"/><path class="cls-2" d="M477.15,825.55q6.69-9.14,18.8-10.88,16.21-2.33,25.24,7.34a23.66,23.66,0,0,1,6.18,11.47l-13.56,1.95a18.67,18.67,0,0,0-4.33-6.57q-4.23-3.71-11.35-2.69a13.37,13.37,0,0,0-10.58,7.61q-3.33,6.57-1.76,17.49T492.56,867a14,14,0,0,0,12,3.83q7-1,10-6.2a20.72,20.72,0,0,0,2.28-8l13.48-1.93a29.54,29.54,0,0,1-6.43,18.54q-6.21,7.68-17.41,9.29-13.85,2-23.07-5.86T471.9,853Q469.45,836,477.15,825.55Z"/><path class="cls-2" d="M555.94,814.55l-12.4,3.4-3.09-11.28,12.4-3.4Zm-10.87,9,12.4-3.4,12.82,46.77-12.4,3.4Z"/><path class="cls-2" d="M576.61,824.29l-3.15-8.46,6.34-2.36-4.72-12.67,11.76-4.38,4.72,12.67,7.38-2.75,3.15,8.46-7.38,2.75,8.94,24q1,2.79,2,3.22t4.59-.93l1.14-.45,1.17-.5,3.31,8.88-5.55,2.3q-8.31,3.43-12.59,1.37-2.76-1.3-4.35-5.55l-10.42-28Z"/><path class="cls-2" d="M638.11,785.91l1-.43,5.83,11.61q-1.13.42-2,.8t-1.37.64q-6.84,3.44-6.95,9.07-.05,3.16,2.56,8.37l10.41,20.71-11.41,5.73-21.77-43.33,10.81-5.43L629,801.2a26.83,26.83,0,0,1,1.6-8.22,13.93,13.93,0,0,1,6.93-6.82Z"/><path class="cls-2" d="M680.3,782.8a20,20,0,0,0,3.5-3.83q1.57-2.52.16-4.52a4.26,4.26,0,0,0-4.09-2.15,13.25,13.25,0,0,0-5.68,2.62q-3.72,2.63-4,5.54a9.18,9.18,0,0,0,1.09,4.67l-10,7.06a18.55,18.55,0,0,1-3.11-10.6q.43-8.15,10.47-15.23a30.91,30.91,0,0,1,13.43-5.62q6.9-1,12,6.16l12.83,18.17q1.33,1.89,3.31,4.53a7.05,7.05,0,0,0,2.57,2.33,4.53,4.53,0,0,0,2.37.12l1.08,1.53-11.27,8a14,14,0,0,1-2.25-1.79q-.93-.92-2-2.19a26.17,26.17,0,0,1-2.17,7.47,18.39,18.39,0,0,1-6.24,7.29,16.06,16.06,0,0,1-11.11,3.24q-5.7-.58-9.67-6.21-5.16-7.31-1.79-14.58,1.86-4,7.36-9Zm9.75.36a14,14,0,0,1-1.3,2.42,20.78,20.78,0,0,1-2.28,2.67l-2,2.1a19,19,0,0,0-3.76,4.78,5.79,5.79,0,0,0,.66,6.13q1.87,2.65,4.2,2.78a7,7,0,0,0,4.47-1.38,13.25,13.25,0,0,0,4.87-6.38q1.48-4-2.08-9.26Z"/><path class="cls-3" d="M105,557.68l4,13.09L45.92,589.83l-4-13.09Z"/><path class="cls-3" d="M51.54,544.74l28.82-5.6a15.44,15.44,0,0,0,6-2.15q3.31-2.41,2.34-7.39-1.24-6.37-6.87-7.72a19.17,19.17,0,0,0-7.65.22l-26,5.06-2.46-12.68,47.82-9.29,2.36,12.15-6.76,1.31q.25.13,1.49.62a9,9,0,0,1,2.25,1.29,17.67,17.67,0,0,1,4.7,5,19.62,19.62,0,0,1,2.21,6.22q2.06,10.59-4.86,15.74-3.81,2.87-12,4.47L54,557.56Z"/><path class="cls-3" d="M41,471.26q0-.25,0-1.1l13-.92q0,1.21,0,2.15t.06,1.52q.54,7.67,5.72,9.94,2.91,1.27,8.75.86l23.23-1.65.91,12.79-48.59,3.45-.86-12.13,8.47-.6a26.94,26.94,0,0,1-7-4.66A14,14,0,0,1,41,471.86C41,471.63,41,471.42,41,471.26Z"/><path class="cls-3" d="M61.74,440.32a20.15,20.15,0,0,0-.87-5.14q-1-2.8-3.48-2.92a4.28,4.28,0,0,0-4.23,1.9,13.31,13.31,0,0,0-1.44,6.12q-.22,4.57,1.92,6.58a9.21,9.21,0,0,0,4.38,2l-.59,12.28a18.64,18.64,0,0,1-10.32-4.09q-6.18-5.38-5.58-17.71a31.06,31.06,0,0,1,3.86-14.1q3.47-6.08,12.27-5.65L80,420.69q2.32.11,5.63.18a7.07,7.07,0,0,0,3.43-.59,4.56,4.56,0,0,0,1.56-1.8l1.87.09-.67,13.84a14.1,14.1,0,0,1-2.81.67q-1.31.16-3,.21a26.3,26.3,0,0,1,4.57,6.34,18.47,18.47,0,0,1,1.91,9.45,16.14,16.14,0,0,1-4.3,10.79q-4,4.15-10.9,3.81-9-.44-12.65-7.6-2-3.93-2.58-11.39Zm6.31-7.49a14.12,14.12,0,0,1,1.11,2.53,20.93,20.93,0,0,1,.7,3.46l.4,2.92a19.08,19.08,0,0,0,1.46,5.93A5.82,5.82,0,0,0,77,450.93q3.26.16,4.8-1.61a7,7,0,0,0,1.67-4.39,13.31,13.31,0,0,0-2-7.8q-2.24-3.63-8.62-4.07Z"/><path class="cls-3" d="M56,365q4.82-3.92,13.8-2.12l32.17,6.43-2.56,12.8-29.05-5.81a13.61,13.61,0,0,0-6-.16q-4,1.09-5.07,6.22-1.26,6.31,3.66,9.73a19,19,0,0,0,7,2.67l25.86,5.17-2.5,12.49-47.68-9.53L48,390.79l7,1.39a21.59,21.59,0,0,1-4.4-5.6,16,16,0,0,1-.95-10.31Q51.15,368.9,56,365Z"/><path class="cls-3" d="M52.43,308.66,58,296.33l24.72,11.2L68.51,273.15l7.34-16.2,13.53,35.8,47.05-9.89L129.13,299,94.56,305.6,98,314.41,118,323.5l-5.59,12.34Z"/><path class="cls-3" d="M115.9,227a19.82,19.82,0,0,1,10.58-3.3,23.94,23.94,0,0,1,10.59,2.07,62.29,62.29,0,0,1,8.41,4.78l-18.86,30.05q6.37,3.65,11.41,1.15a12.93,12.93,0,0,0,5.28-5,9.89,9.89,0,0,0,.42-11.18l6.91-11q3.4,2.74,4.95,8.68,2.54,9.32-3.72,19.3a26.55,26.55,0,0,1-14.2,11.35q-9,3.11-20.47-4.07-10.72-6.73-12.88-16t3.54-18.35A27.73,27.73,0,0,1,115.9,227Zm-.81,22a13.23,13.23,0,0,0,4.58,6.88l11.66-18.59q-4.48-2.4-8.32-1.22a11.16,11.16,0,0,0-6.24,5Q114.17,245.2,115.1,249Z"/><path class="cls-3" d="M159.1,178.4q8.82.24,17.23,7.25,8.72,7.27,11,16.19t-3.91,16.34q-3.88,4.66-8.1,5.94a19.38,19.38,0,0,1-6.89.45l4.7,3.92-8,9.64L114.57,196l8.16-9.78,18,15a18.64,18.64,0,0,1-.55-7.43,16,16,0,0,1,3.93-8.2Q150.28,178.16,159.1,178.4Zm16,27.18q-1.29-4.66-6.27-8.81a23.41,23.41,0,0,0-7.46-4.46,9.41,9.41,0,0,0-11,3.14q-4.47,5.36-1.31,11.41a23.47,23.47,0,0,0,5.79,6.59,18,18,0,0,0,9.75,4.5q4.95.49,8.61-3.91A8.84,8.84,0,0,0,175.07,205.58Z"/><path class="cls-3" d="M193.46,140.83a19.82,19.82,0,0,1,11.08,0,23.94,23.94,0,0,1,9.51,5.1,62.25,62.25,0,0,1,6.62,7.05L193.79,176.1q5,5.36,10.57,4.47a12.94,12.94,0,0,0,6.52-3.19,9.89,9.89,0,0,0,3.7-10.56l9.86-8.48q2.44,3.62,2.16,9.75-.33,9.66-9.26,17.34a26.55,26.55,0,0,1-16.92,6.65q-9.54.31-18.35-9.93-8.26-9.59-7.58-19.09t8.8-16.48A27.73,27.73,0,0,1,193.46,140.83ZM186.2,161.6a13.24,13.24,0,0,0,2.35,7.93l16.63-14.31q-3.57-3.62-7.59-3.62a11.16,11.16,0,0,0-7.44,2.94Q186.43,157.73,186.2,161.6Z"/><path class="cls-3" d="M232.68,110l.94-.56L241,120.23q-1.07.57-1.87,1.06t-1.28.82q-6.35,4.33-5.71,10,.37,3.16,3.67,8l13.12,19.24-10.6,7.23-27.44-40.25,10-6.85,4.78,7a26.92,26.92,0,0,1,.5-8.4,14,14,0,0,1,6-7.71Q232.47,110.13,232.68,110Z"/><path class="cls-3" d="M267.94,129.1a8.48,8.48,0,0,0,3.8,3.45q3.29,1.14,9-1.86a13.47,13.47,0,0,0,4.78-3.79,3.74,3.74,0,0,0-2.71-6q-2.1-.15-13.58,2.83-8.3,2.06-12.75.92t-7.1-6.16a15.18,15.18,0,0,1-.73-12.73q2.43-6.77,10.94-11.27,8.08-4.27,14.87-3.74t11.72,8l-11.26,6a7.53,7.53,0,0,0-3-2.79q-3.07-1.31-7.55,1.06-3.68,1.95-4.64,3.92a3.73,3.73,0,0,0-.15,3.51,3.32,3.32,0,0,0,3.15,1.93q2.14,0,13.41-3.09,7.56-2,12.61-.55a12.28,12.28,0,0,1,7.6,6.35,14.79,14.79,0,0,1,.75,13q-2.63,6.57-12.61,11.84-10.18,5.38-17.29,3.65a15.76,15.76,0,0,1-10.62-8.36Z"/><path class="cls-3" d="M302.26,70l-12,4.85L285.87,64l12-4.85Zm-9.79,10.24,12-4.85,18.3,45.15-12,4.85Z"/><path class="cls-3" d="M353,60.13a14.31,14.31,0,0,1,7.11,3A12.76,12.76,0,0,1,364,67.83a69.41,69.41,0,0,1,3,8.94l7.8,27.54-12.51,3.55-8.09-28.54a13.14,13.14,0,0,0-3-5.75q-2.59-2.8-7.24-1.48-4.82,1.37-6.4,5.32t.13,10l7.2,25.4-12.25,3.47L314.68,53.1l12.25-3.47L333.27,72a15.58,15.58,0,0,1,4.53-7.44,18,18,0,0,1,6.89-3.69A20.62,20.62,0,0,1,353,60.13Z"/><path class="cls-3" d="M399.57,70.56a20.13,20.13,0,0,0,4.89-1.79q2.57-1.52,2.24-4A4.28,4.28,0,0,0,404.06,61a13.32,13.32,0,0,0-6.28-.3q-4.53.61-6.12,3.08a9.21,9.21,0,0,0-1.2,4.67l-12.18,1.64a18.64,18.64,0,0,1,2.16-10.89q4.17-7.05,16.4-8.7a31.06,31.06,0,0,1,14.57,1.24q6.61,2.31,7.78,11l3,22.15q.31,2.3.84,5.57a7.07,7.07,0,0,0,1.21,3.26A4.55,4.55,0,0,0,426.27,95l.25,1.86-13.73,1.85A14.15,14.15,0,0,1,411.62,96q-.39-1.25-.75-2.88a26.3,26.3,0,0,1-5.41,5.64,18.47,18.47,0,0,1-9,3.59,16.13,16.13,0,0,1-11.4-2.28q-4.8-3.16-5.73-10-1.2-8.9,5.18-13.82,3.5-2.68,10.74-4.6Zm8.51,4.85A14.09,14.09,0,0,1,405.8,77a20.87,20.87,0,0,1-3.27,1.32l-2.8.92a19.07,19.07,0,0,0-5.57,2.51,5.82,5.82,0,0,0-2.26,5.76q.44,3.23,2.45,4.43a7,7,0,0,0,4.62.84,13.31,13.31,0,0,0,7.3-3.42q3.16-2.86,2.45-9.21Z"/><path class="cls-3" d="M472.38,50.83q4.75,4,4.66,13.16l-.31,32.8-13-.12L464,67a13.62,13.62,0,0,0-1-5.91q-1.83-3.77-7.06-3.82-6.43-.06-8.88,5.41a19,19,0,0,0-1.31,7.41l-.25,26.37-12.74-.12.46-48.62,12.33.12L445.48,55a21.59,21.59,0,0,1,4.68-5.36,16,16,0,0,1,10-2.86Q467.63,46.83,472.38,50.83Z"/><path class="cls-3" d="M563.45,47.13a21.77,21.77,0,0,1,9.1,10.64,29.33,29.33,0,0,1,2.22,11.41,51,51,0,0,1-1.19,10.91q-2.91,12.81-10.07,20.53-9.7,10.4-24.27,7.09l-27.7-6.29,14.58-64.24,27.7,6.29A34.68,34.68,0,0,1,563.45,47.13Zm-26.83,4.17-9.52,41.92L539.5,96q9.52,2.16,15.4-6.36a33.85,33.85,0,0,0,4.83-11.78q2.23-9.81.34-15.76t-11.05-8Z"/><path class="cls-3" d="M601.13,95.44a20.17,20.17,0,0,0,5.16.74q3-.13,3.84-2.43a4.28,4.28,0,0,0-.52-4.61,13.31,13.31,0,0,0-5.39-3.24q-4.28-1.6-6.85-.18a9.22,9.22,0,0,0-3.26,3.55L582.59,85a18.63,18.63,0,0,1,7-8.58q7-4.25,18.57.08a31.06,31.06,0,0,1,12.25,8q4.73,5.16,1.64,13.4l-7.84,20.93q-.81,2.18-1.89,5.3a7.06,7.06,0,0,0-.48,3.45,4.55,4.55,0,0,0,1.24,2l-.66,1.76-13-4.86a14.1,14.1,0,0,1,.22-2.88q.24-1.29.7-2.89a26.31,26.31,0,0,1-7.43,2.42,18.47,18.47,0,0,1-9.59-1.06,16.13,16.13,0,0,1-9-7.39q-2.74-5.06-.31-11.54,3.15-8.41,11.1-9.73,4.35-.71,11.64,1Zm5.21,8.3a14.08,14.08,0,0,1-2.74.29,21,21,0,0,1-3.51-.38l-2.9-.51a19.07,19.07,0,0,0-6.09-.42,5.82,5.82,0,0,0-4.71,4q-1.14,3.05.07,5.06a7,7,0,0,0,3.68,2.93,13.31,13.31,0,0,0,8,.44q4.14-1,6.51-7Z"/><path class="cls-3" d="M674.65,112.53q2.29,5.77-2.12,13.8l-15.78,28.76-11.44-6.28,14.26-26a13.6,13.6,0,0,0,1.94-5.66q.17-4.19-4.42-6.71-5.64-3.1-10.38.57a19,19,0,0,0-4.66,5.91l-12.69,23.11-11.17-6.13,23.4-42.62,10.81,5.94L649,103.46a21.6,21.6,0,0,1,6.66-2.51,16,16,0,0,1,10.12,2.19Q672.36,106.76,674.65,112.53Z"/><path class="cls-3" d="M731.23,128.19l9.6,9.55L721.68,157l37.19-1.29,12.61,12.55-38.27.14L726,215.91l-12.54-12.48,5.9-34.7-9.44.09-15.54,15.62-9.6-9.55Z"/><path class="cls-3" d="M784.74,218.18a19.82,19.82,0,0,1-1,11,24,24,0,0,1-5.94,9,62.22,62.22,0,0,1-7.62,6l-20.63-28.86q-5.79,4.5-5.4,10.12a12.93,12.93,0,0,0,2.59,6.78A9.89,9.89,0,0,0,757,236.87l7.56,10.58q-3.83,2.1-9.91,1.28-9.59-1.19-16.44-10.78a26.55,26.55,0,0,1-5.1-17.44q.55-9.53,11.54-17.39,10.3-7.36,19.69-5.83t15.63,10.24A27.73,27.73,0,0,1,784.74,218.18Zm-20-9.1a13.23,13.23,0,0,0-8.11,1.62l12.76,17.85q3.92-3.23,4.29-7.24a11.16,11.16,0,0,0-2.26-7.67Q768.54,209.65,764.7,209.07Z"/><path class="cls-3" d="M790.61,263.15a20.13,20.13,0,0,0,3.42,3.93q2.33,1.86,4.49.68a4.28,4.28,0,0,0,2.62-3.83,13.31,13.31,0,0,0-2-6q-2.19-4-5.06-4.62a9.22,9.22,0,0,0-4.79.55l-5.88-10.79a18.63,18.63,0,0,1,10.94-1.87q8.08,1.37,14,12.21a31.07,31.07,0,0,1,4,14.05q.2,7-7.53,11.21l-19.62,10.69q-2,1.11-4.9,2.77a7.08,7.08,0,0,0-2.62,2.29,4.57,4.57,0,0,0-.4,2.35l-1.65.9-6.63-12.16a14.18,14.18,0,0,1,2-2q1-.82,2.42-1.73a26.29,26.29,0,0,1-7.2-3,18.47,18.47,0,0,1-6.55-7.08,16.13,16.13,0,0,1-1.94-11.46q1.24-5.62,7.32-8.93,7.89-4.3,14.76-.1,3.75,2.31,8.13,8.39Zm-1.49,9.68a14.09,14.09,0,0,1-2.26-1.58,21,21,0,0,1-2.4-2.59l-1.86-2.29a19.05,19.05,0,0,0-4.33-4.31,5.81,5.81,0,0,0-6.19-.05q-2.87,1.56-3.26,3.87a7,7,0,0,0,.86,4.62,13.32,13.32,0,0,0,5.8,5.6q3.8,1.93,9.48-1Z"/><path class="cls-3" d="M845.53,343.34a14.17,14.17,0,0,1-2.16,6.83,14,14,0,0,1-4.92,4.75,43.3,43.3,0,0,1-6.6,2.89L803,368.29,798.49,356l29.13-10.66a10.17,10.17,0,0,0,4-2.41q2.61-2.76,1-7-1.81-5-6.62-5.34a13.75,13.75,0,0,0-5.6,1l-27.24,10-4.41-12,27.24-10a16.31,16.31,0,0,0,5.61-3q2.76-2.72,1.15-7.13-1.87-5.12-5.83-5.67a13.6,13.6,0,0,0-6,1.09l-27.53,10.08L779,302.74,824.65,286l4.25,11.63-6.67,2.44a20.48,20.48,0,0,1,6.61,2.34,17.68,17.68,0,0,1,6.78,17.36,14.31,14.31,0,0,1-4.05,6,16.18,16.18,0,0,1,8.05,3.67,19,19,0,0,1,4.9,7.53A17,17,0,0,1,845.53,343.34Z"/><path class="cls-3" d="M837.11,391a20.17,20.17,0,0,0,2.06,4.79q1.66,2.48,4.07,2a4.28,4.28,0,0,0,3.66-2.85,13.31,13.31,0,0,0,0-6.29q-.86-4.49-3.42-5.94a9.21,9.21,0,0,0-4.73-.94l-2.32-12.07a18.63,18.63,0,0,1,11,1.55q7.28,3.77,9.6,15.89a31.06,31.06,0,0,1-.42,14.62q-1.94,6.73-10.59,8.39L824,414.34q-2.28.44-5.51,1.15a7.08,7.08,0,0,0-3.19,1.39,4.56,4.56,0,0,0-1.09,2.12l-1.84.35-2.61-13.61a14.14,14.14,0,0,1,2.57-1.31q1.23-.46,2.83-.91a26.3,26.3,0,0,1-5.94-5.09,18.47,18.47,0,0,1-4.09-8.74,16.13,16.13,0,0,1,1.64-11.51q2.89-5,9.69-6.28,8.82-1.69,14.09,4.4,2.87,3.35,5.19,10.46Zm-4.37,8.77a14.13,14.13,0,0,1-1.67-2.19,20.92,20.92,0,0,1-1.5-3.19l-1.07-2.75a19.06,19.06,0,0,0-2.82-5.42,5.82,5.82,0,0,0-5.88-1.94q-3.2.62-4.28,2.69a7,7,0,0,0-.58,4.66,13.32,13.32,0,0,0,3.82,7.1q3,3,9.33,1.93Z"/><path class="cls-3" d="M860.85,462.58q-3.72,5-12.87,5.41l-32.77,1.57-.62-13,29.6-1.42a13.59,13.59,0,0,0,5.84-1.3q3.66-2,3.41-7.27-.31-6.43-5.91-8.56a19,19,0,0,0-7.47-.89l-26.34,1.26-.61-12.72,48.57-2.33.59,12.32-7.1.34a21.59,21.59,0,0,1,5.62,4.36,16,16,0,0,1,3.42,9.77Q864.57,457.61,860.85,462.58Z"/><path class="cls-3" d="M842.32,501.29a20.16,20.16,0,0,0,.6,5.17q.88,2.85,3.33,3.1a4.28,4.28,0,0,0,4.33-1.68,13.32,13.32,0,0,0,1.76-6q.46-4.55-1.57-6.67a9.22,9.22,0,0,0-4.26-2.25l1.24-12.23a18.64,18.64,0,0,1,10.09,4.63q5.89,5.69,4.65,18a31,31,0,0,1-4.59,13.88q-3.79,5.89-12.54,5l-22.23-2.25q-2.31-.23-5.61-.48a7.07,7.07,0,0,0-3.46.41,4.56,4.56,0,0,0-1.66,1.72l-1.87-.19,1.4-13.78a14.21,14.21,0,0,1,2.84-.52q1.31-.09,3-.06a26.31,26.31,0,0,1-4.23-6.57,18.49,18.49,0,0,1-1.42-9.54,16.14,16.14,0,0,1,4.87-10.55q4.19-3.94,11.09-3.24,8.94.9,12.24,8.25,1.79,4,2,11.51Zm-6.7,7.15a14.1,14.1,0,0,1-1-2.58,20.82,20.82,0,0,1-.52-3.49l-.24-2.94a19.07,19.07,0,0,0-1.14-6,5.82,5.82,0,0,0-5.08-3.54q-3.25-.33-4.88,1.35a7,7,0,0,0-1.9,4.3,13.31,13.31,0,0,0,1.63,7.9q2,3.74,8.39,4.52Z"/><path class="cls-3" d="M844.1,576.83q-5,3.65-13.89,1.38l-31.78-8.13,3.23-12.64,28.71,7.34a13.61,13.61,0,0,0,6,.47q4.1-.88,5.4-5.95,1.6-6.23-3.14-9.92a19,19,0,0,0-6.88-3l-25.54-6.53,3.16-12.34,47.11,12-3.06,12-6.88-1.76a21.57,21.57,0,0,1,4.09,5.82,16,16,0,0,1,.4,10.34Q849.12,573.18,844.1,576.83Z"/><path class="cls-4" d="M276.29,465.63H252.38V502.1q0,7.82-3.69,11.87a13,13,0,0,1-18.81,0q-3.6-4-3.6-11.73V403q0-8.61,4-12.3T242.8,387h33.49q14.85,0,22.85,2.29a34,34,0,0,1,13.67,7.29A32.91,32.91,0,0,1,321.55,409a44,44,0,0,1,3,16.61q0,19.69-12.13,29.84T276.29,465.63ZM270,406.57H252.38v39.38H270A52.49,52.49,0,0,0,285.38,444a18,18,0,0,0,9.45-6.33q3.25-4.39,3.25-11.51,0-8.52-5-13.89Q287.45,406.57,270,406.57Z"/><path class="cls-4" d="M381.58,438a21.41,21.41,0,0,0,13.93-4.75q5.84-4.75,5.84-13.62A16.28,16.28,0,0,0,396.7,408q-4.66-4.88-12.57-4.88a22.49,22.49,0,0,0-8.83,1.49,14.22,14.22,0,0,0-5.49,4,29.76,29.76,0,0,0-3.82,6.33q-1.8,3.87-3.3,7.29a6.18,6.18,0,0,1-3.16,2.9,12.47,12.47,0,0,1-5.27,1.05,9.11,9.11,0,0,1-6.46-2.86,10.1,10.1,0,0,1-2.94-7.6,20.09,20.09,0,0,1,2.77-9.62,35.11,35.11,0,0,1,8.09-9.62,40.66,40.66,0,0,1,13.23-7.34,53.22,53.22,0,0,1,17.67-2.77,49.29,49.29,0,0,1,15.56,2.33,36.37,36.37,0,0,1,12.22,6.72,29.05,29.05,0,0,1,7.82,10.2,29.81,29.81,0,0,1,2.64,12.48A28.45,28.45,0,0,1,421,433.15a50.83,50.83,0,0,1-10.94,12.26,48.46,48.46,0,0,1,11.56,8.44,31.54,31.54,0,0,1,9.45,22.94,38.83,38.83,0,0,1-3.21,15.47,39.48,39.48,0,0,1-9.45,13.32,45,45,0,0,1-14.81,9.14,52.37,52.37,0,0,1-18.94,3.3,45.36,45.36,0,0,1-18.9-3.78A43.48,43.48,0,0,1,352,504.78,43,43,0,0,1,343.83,493q-2.77-6.06-2.77-10a10.79,10.79,0,0,1,3.3-8.22,11.49,11.49,0,0,1,8.22-3.12,8.74,8.74,0,0,1,4.75,1.45,6.85,6.85,0,0,1,3,3.47q4.57,12.22,9.8,18.15t14.72,5.93a22.12,22.12,0,0,0,10.5-2.68,21.9,21.9,0,0,0,8.35-8,22.57,22.57,0,0,0,3.3-12.22q0-10.28-5.62-16.13t-15.64-5.84q-1.76,0-5.45.35t-4.75.35q-4.83,0-7.47-2.42a8.66,8.66,0,0,1-2.64-6.72,8.38,8.38,0,0,1,3.16-6.81Q371.74,438,378,438Z"/><path class="cls-4" d="M472.37,401.91l29.18,86.4,29.27-87q2.29-6.86,3.43-9.54a12.7,12.7,0,0,1,3.78-4.83,11.07,11.07,0,0,1,7.21-2.15,12.07,12.07,0,0,1,6.2,1.67,12.31,12.31,0,0,1,4.48,4.44,10.92,10.92,0,0,1,1.63,5.58,18.29,18.29,0,0,1-.53,4.17,37.89,37.89,0,0,1-1.32,4.39q-.79,2.15-1.58,4.44l-31.2,84.2q-1.67,4.83-3.34,9.18a38.89,38.89,0,0,1-3.87,7.65,17.31,17.31,0,0,1-5.84,5.41,17.56,17.56,0,0,1-8.92,2.11,17.86,17.86,0,0,1-8.92-2.07,17,17,0,0,1-5.89-5.45,40.12,40.12,0,0,1-3.91-7.69q-1.67-4.31-3.34-9.14l-30.67-83.5q-.79-2.28-1.63-4.48a34.54,34.54,0,0,1-1.41-4.75,20.2,20.2,0,0,1-.57-4.31,11.46,11.46,0,0,1,3.6-8.17,12.12,12.12,0,0,1,9.05-3.69q6.68,0,9.45,4.09T472.37,401.91Z"/><path class="cls-4" d="M684.54,475.12a34.35,34.35,0,0,1-3,13.32A48,48,0,0,1,672,502.5a48.65,48.65,0,0,1-16.61,11.21Q645.25,518,631.81,518a82.36,82.36,0,0,1-18.54-1.93,52,52,0,0,1-15.16-6,51.15,51.15,0,0,1-12.52-10.77,64,64,0,0,1-8.7-13.58,70.71,70.71,0,0,1-5.41-16,87.42,87.42,0,0,1-1.8-18.11,80.3,80.3,0,0,1,4.53-27.86,59.44,59.44,0,0,1,13-21,56.56,56.56,0,0,1,19.78-13.32,64,64,0,0,1,24.17-4.57q15.64,0,27.86,6.24t18.72,15.42q6.5,9.19,6.5,17.36A11.31,11.31,0,0,1,681,431.7a10,10,0,0,1-7.65,3.43q-5,0-7.51-2.37a32.87,32.87,0,0,1-5.58-8.17q-5.1-9.58-12-14.33t-17-4.75q-16.08,0-25.62,12.22t-9.54,34.72q0,15,4.22,25t12,14.9a33,33,0,0,0,18.11,4.92q11.25,0,19-5.58t11.73-16.39a27.81,27.81,0,0,1,4.13-8.31q2.46-3.21,7.91-3.21a11.07,11.07,0,0,1,8,3.25A10.83,10.83,0,0,1,684.54,475.12Z"/></svg>